<?xml version="1.0" encoding="UTF-8"?>
<svg xmlns="http://www.w3.org/2000/svg" xmlns:xlink="http://www.w3.org/1999/xlink" width="162" height="162" viewBox="0 0 162 162">
<path fill-rule="evenodd" fill="rgb(82.7%, 82.7%, 82.7%)" fill-opacity="0.3" d="M 161 81 C 161 36.816406 125.183594 1 81 1 C 36.816406 1 1 36.816406 1 81 C 1 125.183594 36.816406 161 81 161 C 125.183594 161 161 125.183594 161 81 Z M 161 81 "/>
<path fill-rule="evenodd" fill="rgb(0%, 0%, 100%)" fill-opacity="1" stroke-width="0.4" stroke-linecap="butt" stroke-linejoin="round" stroke="rgb(0%, 0%, 0%)" stroke-opacity="1" stroke-miterlimit="10" d="M 192 720 C 192 728.835938 184.835938 736 176 736 C 167.164062 736 160 728.835938 160 720 C 160 711.164062 167.164062 704 176 704 C 184.835938 704 192 711.164062 192 720 Z M 192 720 " transform="matrix(1, 0, 0, -1, -47, 785)"/>
<path fill-rule="evenodd" fill="rgb(54.5%, 0%, 54.5%)" fill-opacity="1" stroke-width="0.4" stroke-linecap="butt" stroke-linejoin="round" stroke="rgb(0%, 0%, 0%)" stroke-opacity="1" stroke-miterlimit="10" d="M 144 752 C 144 760.835938 136.835938 768 128 768 C 119.164062 768 112 760.835938 112 752 C 112 743.164062 119.164062 736 128 736 C 136.835938 736 144 743.164062 144 752 Z M 144 752 " transform="matrix(1, 0, 0, -1, -47, 785)"/>
<path fill-rule="evenodd" fill="rgb(18%, 54.5%, 34.1%)" fill-opacity="1" stroke-width="0.4" stroke-linecap="butt" stroke-linejoin="round" stroke="rgb(0%, 0%, 0%)" stroke-opacity="1" stroke-miterlimit="10" d="M 144 704 C 144 712.835938 136.835938 720 128 720 C 119.164062 720 112 712.835938 112 704 C 112 695.164062 119.164062 688 128 688 C 136.835938 688 144 695.164062 144 704 Z M 144 704 " transform="matrix(1, 0, 0, -1, -47, 785)"/>
<path fill-rule="evenodd" fill="rgb(100%, 100%, 0%)" fill-opacity="1" stroke-width="0.4" stroke-linecap="butt" stroke-linejoin="round" stroke="rgb(0%, 0%, 0%)" stroke-opacity="1" stroke-miterlimit="10" d="M 96 720 C 96 728.835938 88.835938 736 80 736 C 71.164062 736 64 728.835938 64 720 C 64 711.164062 71.164062 704 80 704 C 88.835938 704 96 711.164062 96 720 Z M 96 720 " transform="matrix(1, 0, 0, -1, -47, 785)"/>
<path fill-rule="evenodd" fill="rgb(100%, 64.7%, 0%)" fill-opacity="1" stroke-width="0.4" stroke-linecap="butt" stroke-linejoin="round" stroke="rgb(0%, 0%, 0%)" stroke-opacity="1" stroke-miterlimit="10" d="M 112 672 C 112 680.835938 104.835938 688 96 688 C 87.164062 688 80 680.835938 80 672 C 80 663.164062 87.164062 656 96 656 C 104.835938 656 112 663.164062 112 672 Z M 112 672 " transform="matrix(1, 0, 0, -1, -47, 785)"/>
<path fill-rule="evenodd" fill="rgb(100%, 0%, 0%)" fill-opacity="1" stroke-width="0.4" stroke-linecap="butt" stroke-linejoin="round" stroke="rgb(0%, 0%, 0%)" stroke-opacity="1" stroke-miterlimit="10" d="M 176 672 C 176 680.835938 168.835938 688 160 688 C 151.164062 688 144 680.835938 144 672 C 144 663.164062 151.164062 656 160 656 C 168.835938 656 176 663.164062 176 672 Z M 176 672 " transform="matrix(1, 0, 0, -1, -47, 785)"/>
<path fill-rule="evenodd" fill="rgb(0%, 0%, 54.5%)" fill-opacity="1" stroke-width="0.4" stroke-linecap="butt" stroke-linejoin="round" stroke="rgb(0%, 0%, 0%)" stroke-opacity="1" stroke-miterlimit="10" d="M 113.15625 746.03125 L 93.164062 729.09375 " transform="matrix(1, 0, 0, -1, -47, 785)"/>
<path fill-rule="evenodd" fill="rgb(0%, 0%, 0%)" fill-opacity="1" stroke-width="0.4" stroke-linecap="butt" stroke-linejoin="round" stroke="rgb(0%, 0%, 0%)" stroke-opacity="1" stroke-miterlimit="10" d="M 93.164062 729.09375 L 100.011719 731.839844 L 97 735.398438 Z M 93.164062 729.09375 " transform="matrix(1, 0, 0, -1, -47, 785)"/>
<path fill-rule="evenodd" fill="rgb(0%, 0%, 0%)" fill-opacity="1" stroke-width="0.4" stroke-linecap="butt" stroke-linejoin="round" stroke="rgb(0%, 0%, 0%)" stroke-opacity="1" stroke-miterlimit="10" d="M 113.15625 746.03125 L 106.308594 743.285156 L 109.320312 739.726562 Z M 113.15625 746.03125 " transform="matrix(1, 0, 0, -1, -47, 785)"/>
<path fill-rule="evenodd" fill="rgb(0%, 0%, 54.5%)" fill-opacity="1" stroke-width="0.4" stroke-linecap="butt" stroke-linejoin="round" stroke="rgb(0%, 0%, 0%)" stroke-opacity="1" stroke-miterlimit="10" d="M 129.714844 719.90625 L 127.777344 736.003906 " transform="matrix(1, 0, 0, -1, -47, 785)"/>
<path fill-rule="evenodd" fill="rgb(0%, 0%, 0%)" fill-opacity="1" stroke-width="0.4" stroke-linecap="butt" stroke-linejoin="round" stroke="rgb(0%, 0%, 0%)" stroke-opacity="1" stroke-miterlimit="10" d="M 127.777344 736.003906 L 126.300781 728.773438 L 130.929688 729.332031 Z M 127.777344 736.003906 " transform="matrix(1, 0, 0, -1, -47, 785)"/>
<path fill-rule="evenodd" fill="rgb(0%, 0%, 0%)" fill-opacity="1" stroke-width="0.4" stroke-linecap="butt" stroke-linejoin="round" stroke="rgb(0%, 0%, 0%)" stroke-opacity="1" stroke-miterlimit="10" d="M 129.714844 719.90625 L 131.195312 727.136719 L 126.566406 726.578125 Z M 129.714844 719.90625 " transform="matrix(1, 0, 0, -1, -47, 785)"/>
<path fill-rule="evenodd" fill="rgb(0%, 0%, 54.5%)" fill-opacity="1" stroke-width="0.4" stroke-linecap="butt" stroke-linejoin="round" stroke="rgb(0%, 0%, 0%)" stroke-opacity="1" stroke-miterlimit="10" d="M 111.96875 670.980469 L 166.097656 707.433594 " transform="matrix(1, 0, 0, -1, -47, 785)"/>
<path fill-rule="evenodd" fill="rgb(0%, 0%, 0%)" fill-opacity="1" stroke-width="0.4" stroke-linecap="butt" stroke-linejoin="round" stroke="rgb(0%, 0%, 0%)" stroke-opacity="1" stroke-miterlimit="10" d="M 166.097656 707.433594 L 158.988281 705.457031 L 161.59375 701.589844 Z M 166.097656 707.433594 " transform="matrix(1, 0, 0, -1, -47, 785)"/>
<path fill-rule="evenodd" fill="rgb(0%, 0%, 0%)" fill-opacity="1" stroke-width="0.4" stroke-linecap="butt" stroke-linejoin="round" stroke="rgb(0%, 0%, 0%)" stroke-opacity="1" stroke-miterlimit="10" d="M 111.96875 670.980469 L 119.078125 672.957031 L 116.472656 676.824219 Z M 111.96875 670.980469 " transform="matrix(1, 0, 0, -1, -47, 785)"/>
<path fill-rule="evenodd" fill="rgb(0%, 0%, 54.5%)" fill-opacity="1" stroke-width="0.4" stroke-linecap="butt" stroke-linejoin="round" stroke="rgb(0%, 0%, 0%)" stroke-opacity="1" stroke-miterlimit="10" d="M 169.429688 684.925781 L 172.605469 704.363281 " transform="matrix(1, 0, 0, -1, -47, 785)"/>
<path fill-rule="evenodd" fill="rgb(0%, 0%, 0%)" fill-opacity="1" stroke-width="0.4" stroke-linecap="butt" stroke-linejoin="round" stroke="rgb(0%, 0%, 0%)" stroke-opacity="1" stroke-miterlimit="10" d="M 172.605469 704.363281 L 169.175781 697.832031 L 173.777344 697.078125 Z M 172.605469 704.363281 " transform="matrix(1, 0, 0, -1, -47, 785)"/>
<path fill-rule="evenodd" fill="rgb(0%, 0%, 0%)" fill-opacity="1" stroke-width="0.4" stroke-linecap="butt" stroke-linejoin="round" stroke="rgb(0%, 0%, 0%)" stroke-opacity="1" stroke-miterlimit="10" d="M 169.429688 684.925781 L 172.859375 691.457031 L 168.257812 692.210938 Z M 169.429688 684.925781 " transform="matrix(1, 0, 0, -1, -47, 785)"/>
<path fill-rule="evenodd" fill="rgb(0%, 0%, 54.5%)" fill-opacity="1" stroke-width="0.4" stroke-linecap="butt" stroke-linejoin="round" stroke="rgb(0%, 0%, 0%)" stroke-opacity="1" stroke-miterlimit="10" d="M 144.492188 675.933594 L 81.691406 704.089844 " transform="matrix(1, 0, 0, -1, -47, 785)"/>
<path fill-rule="evenodd" fill="rgb(0%, 0%, 0%)" fill-opacity="1" stroke-width="0.4" stroke-linecap="butt" stroke-linejoin="round" stroke="rgb(0%, 0%, 0%)" stroke-opacity="1" stroke-miterlimit="10" d="M 81.691406 704.089844 L 87.125 699.097656 L 89.03125 703.351562 Z M 81.691406 704.089844 " transform="matrix(1, 0, 0, -1, -47, 785)"/>
<path fill-rule="evenodd" fill="rgb(0%, 0%, 0%)" fill-opacity="1" stroke-width="0.4" stroke-linecap="butt" stroke-linejoin="round" stroke="rgb(0%, 0%, 0%)" stroke-opacity="1" stroke-miterlimit="10" d="M 144.492188 675.933594 L 139.058594 680.925781 L 137.148438 676.671875 Z M 144.492188 675.933594 " transform="matrix(1, 0, 0, -1, -47, 785)"/>
</svg>
