<?xml version="1.0" encoding="UTF-8"?>
<svg xmlns="http://www.w3.org/2000/svg" xmlns:xlink="http://www.w3.org/1999/xlink" width="162" height="162" viewBox="0 0 162 162">
<path fill-rule="evenodd" fill="rgb(82.7%, 82.7%, 82.7%)" fill-opacity="0.3" d="M 161 81 C 161 36.816406 125.183594 1 81 1 C 36.816406 1 1 36.816406 1 81 C 1 125.183594 36.816406 161 81 161 C 125.183594 161 161 125.183594 161 81 Z M 161 81 "/>
<path fill-rule="evenodd" fill="rgb(0%, 0%, 100%)" fill-opacity="1" stroke-width="0.4" stroke-linecap="butt" stroke-linejoin="round" stroke="rgb(0%, 0%, 0%)" stroke-opacity="1" stroke-miterlimit="10" d="M 192 720 C 192 728.835938 184.835938 736 176 736 C 167.164062 736 160 728.835938 160 720 C 160 711.164062 167.164062 704 176 704 C 184.835938 704 192 711.164062 192 720 Z M 192 720 " transform="matrix(1, 0, 0, -1, -47, 785)"/>
<path fill-rule="evenodd" fill="rgb(54.5%, 0%, 54.5%)" fill-opacity="1" stroke-width="0.4" stroke-linecap="butt" stroke-linejoin="round" stroke="rgb(0%, 0%, 0%)" stroke-opacity="1" stroke-miterlimit="10" d="M 144 752 C 144 760.835938 136.835938 768 128 768 C 119.164062 768 112 760.835938 112 752 C 112 743.164062 119.164062 736 128 736 C 136.835938 736 144 743.164062 144 752 Z M 144 752 " transform="matrix(1, 0, 0, -1, -47, 785)"/>
<path fill-rule="evenodd" fill="rgb(18%, 54.5%, 34.1%)" fill-opacity="1" stroke-width="0.4" stroke-linecap="butt" stroke-linejoin="round" stroke="rgb(0%, 0%, 0%)" stroke-opacity="1" stroke-miterlimit="10" d="M 144 704 C 144 712.835938 136.835938 720 128 720 C 119.164062 720 112 712.835938 112 704 C 112 695.164062 119.164062 688 128 688 C 136.835938 688 144 695.164062 144 704 Z M 144 704 " transform="matrix(1, 0, 0, -1, -47, 785)"/>
<path fill-rule="evenodd" fill="rgb(100%, 100%, 0%)" fill-opacity="1" stroke-width="0.4" stroke-linecap="butt" stroke-linejoin="round" stroke="rgb(0%, 0%, 0%)" stroke-opacity="1" stroke-miterlimit="10" d="M 96 720 C 96 728.835938 88.835938 736 80 736 C 71.164062 736 64 728.835938 64 720 C 64 711.164062 71.164062 704 80 704 C 88.835938 704 96 711.164062 96 720 Z M 96 720 " transform="matrix(1, 0, 0, -1, -47, 785)"/>
<path fill-rule="evenodd" fill="rgb(100%, 64.7%, 0%)" fill-opacity="1" stroke-width="0.4" stroke-linecap="butt" stroke-linejoin="round" stroke="rgb(0%, 0%, 0%)" stroke-opacity="1" stroke-miterlimit="10" d="M 112 672 C 112 680.835938 104.835938 688 96 688 C 87.164062 688 80 680.835938 80 672 C 80 663.164062 87.164062 656 96 656 C 104.835938 656 112 663.164062 112 672 Z M 112 672 " transform="matrix(1, 0, 0, -1, -47, 785)"/>
<path fill-rule="evenodd" fill="rgb(100%, 0%, 0%)" fill-opacity="1" stroke-width="0.4" stroke-linecap="butt" stroke-linejoin="round" stroke="rgb(0%, 0%, 0%)" stroke-opacity="1" stroke-miterlimit="10" d="M 176 672 C 176 680.835938 168.835938 688 160 688 C 151.164062 688 144 680.835938 144 672 C 144 663.164062 151.164062 656 160 656 C 168.835938 656 176 663.164062 176 672 Z M 176 672 " transform="matrix(1, 0, 0, -1, -47, 785)"/>
</svg>
