<?xml version="1.0" encoding="utf-8" standalone="no"?>
<!DOCTYPE svg PUBLIC "-//W3C//DTD SVG 1.1//EN"
  "http://www.w3.org/Graphics/SVG/1.1/DTD/svg11.dtd">
<svg xmlns:xlink="http://www.w3.org/1999/xlink" width="864pt" height="432pt" viewBox="0 0 864 432" xmlns="http://www.w3.org/2000/svg" version="1.1">
 <metadata>
  <rdf:RDF xmlns:dc="http://purl.org/dc/elements/1.1/" xmlns:cc="http://creativecommons.org/ns#" xmlns:rdf="http://www.w3.org/1999/02/22-rdf-syntax-ns#">
   <cc:Work>
    <dc:type rdf:resource="http://purl.org/dc/dcmitype/StillImage"/>
    <dc:date>2024-11-05T17:05:16.393659</dc:date>
    <dc:format>image/svg+xml</dc:format>
    <dc:creator>
     <cc:Agent>
      <dc:title>Matplotlib v3.6.3, https://matplotlib.org/</dc:title>
     </cc:Agent>
    </dc:creator>
   </cc:Work>
  </rdf:RDF>
 </metadata>
 <defs>
  <style type="text/css">*{stroke-linejoin: round; stroke-linecap: butt}</style>
 </defs>
 <g id="figure_1">
  <g id="patch_1">
   <path d="M 0 432 
L 864 432 
L 864 0 
L 0 0 
L 0 432 
z
" style="fill: none"/>
  </g>
  <g id="axes_1">
   <g id="patch_2">
    <path d="M 70.22 370.6 
L 412.83 370.6 
L 412.83 37.68 
L 70.22 37.68 
L 70.22 370.6 
z
" style="fill: none"/>
   </g>
   <g id="matplotlib.axis_1">
    <g id="xtick_1">
     <g id="line2d_1">
      <defs>
       <path id="m4d07c3d5fd" d="M 0 0 
L 0 3.5 
" style="stroke: #000000; stroke-width: 0.8"/>
      </defs>
      <g>
       <use xlink:href="#m4d07c3d5fd" x="85.793182" y="370.6" style="stroke: #000000; stroke-width: 0.8"/>
      </g>
     </g>
     <g id="text_1">
      <!-- 0 -->
      <g transform="translate(80.703182 389.7575) scale(0.16 -0.16)">
       <defs>
        <path id="DejaVuSans-30" d="M 2034 4250 
Q 1547 4250 1301 3770 
Q 1056 3291 1056 2328 
Q 1056 1369 1301 889 
Q 1547 409 2034 409 
Q 2525 409 2770 889 
Q 3016 1369 3016 2328 
Q 3016 3291 2770 3770 
Q 2525 4250 2034 4250 
z
M 2034 4750 
Q 2819 4750 3233 4129 
Q 3647 3509 3647 2328 
Q 3647 1150 3233 529 
Q 2819 -91 2034 -91 
Q 1250 -91 836 529 
Q 422 1150 422 2328 
Q 422 3509 836 4129 
Q 1250 4750 2034 4750 
z
" transform="scale(0.015625)"/>
       </defs>
       <use xlink:href="#DejaVuSans-30"/>
      </g>
     </g>
    </g>
    <g id="xtick_2">
     <g id="line2d_2">
      <g>
       <use xlink:href="#m4d07c3d5fd" x="148.085909" y="370.6" style="stroke: #000000; stroke-width: 0.8"/>
      </g>
     </g>
     <g id="text_2">
      <!-- 10 -->
      <g transform="translate(137.905909 389.7575) scale(0.16 -0.16)">
       <defs>
        <path id="DejaVuSans-31" d="M 794 531 
L 1825 531 
L 1825 4091 
L 703 3866 
L 703 4441 
L 1819 4666 
L 2450 4666 
L 2450 531 
L 3481 531 
L 3481 0 
L 794 0 
L 794 531 
z
" transform="scale(0.015625)"/>
       </defs>
       <use xlink:href="#DejaVuSans-31"/>
       <use xlink:href="#DejaVuSans-30" x="63.623047"/>
      </g>
     </g>
    </g>
    <g id="xtick_3">
     <g id="line2d_3">
      <g>
       <use xlink:href="#m4d07c3d5fd" x="210.378636" y="370.6" style="stroke: #000000; stroke-width: 0.8"/>
      </g>
     </g>
     <g id="text_3">
      <!-- 20 -->
      <g transform="translate(200.198636 389.7575) scale(0.16 -0.16)">
       <defs>
        <path id="DejaVuSans-32" d="M 1228 531 
L 3431 531 
L 3431 0 
L 469 0 
L 469 531 
Q 828 903 1448 1529 
Q 2069 2156 2228 2338 
Q 2531 2678 2651 2914 
Q 2772 3150 2772 3378 
Q 2772 3750 2511 3984 
Q 2250 4219 1831 4219 
Q 1534 4219 1204 4116 
Q 875 4013 500 3803 
L 500 4441 
Q 881 4594 1212 4672 
Q 1544 4750 1819 4750 
Q 2544 4750 2975 4387 
Q 3406 4025 3406 3419 
Q 3406 3131 3298 2873 
Q 3191 2616 2906 2266 
Q 2828 2175 2409 1742 
Q 1991 1309 1228 531 
z
" transform="scale(0.015625)"/>
       </defs>
       <use xlink:href="#DejaVuSans-32"/>
       <use xlink:href="#DejaVuSans-30" x="63.623047"/>
      </g>
     </g>
    </g>
    <g id="xtick_4">
     <g id="line2d_4">
      <g>
       <use xlink:href="#m4d07c3d5fd" x="272.671364" y="370.6" style="stroke: #000000; stroke-width: 0.8"/>
      </g>
     </g>
     <g id="text_4">
      <!-- 30 -->
      <g transform="translate(262.491364 389.7575) scale(0.16 -0.16)">
       <defs>
        <path id="DejaVuSans-33" d="M 2597 2516 
Q 3050 2419 3304 2112 
Q 3559 1806 3559 1356 
Q 3559 666 3084 287 
Q 2609 -91 1734 -91 
Q 1441 -91 1130 -33 
Q 819 25 488 141 
L 488 750 
Q 750 597 1062 519 
Q 1375 441 1716 441 
Q 2309 441 2620 675 
Q 2931 909 2931 1356 
Q 2931 1769 2642 2001 
Q 2353 2234 1838 2234 
L 1294 2234 
L 1294 2753 
L 1863 2753 
Q 2328 2753 2575 2939 
Q 2822 3125 2822 3475 
Q 2822 3834 2567 4026 
Q 2313 4219 1838 4219 
Q 1578 4219 1281 4162 
Q 984 4106 628 3988 
L 628 4550 
Q 988 4650 1302 4700 
Q 1616 4750 1894 4750 
Q 2613 4750 3031 4423 
Q 3450 4097 3450 3541 
Q 3450 3153 3228 2886 
Q 3006 2619 2597 2516 
z
" transform="scale(0.015625)"/>
       </defs>
       <use xlink:href="#DejaVuSans-33"/>
       <use xlink:href="#DejaVuSans-30" x="63.623047"/>
      </g>
     </g>
    </g>
    <g id="xtick_5">
     <g id="line2d_5">
      <g>
       <use xlink:href="#m4d07c3d5fd" x="334.964091" y="370.6" style="stroke: #000000; stroke-width: 0.8"/>
      </g>
     </g>
     <g id="text_5">
      <!-- 40 -->
      <g transform="translate(324.784091 389.7575) scale(0.16 -0.16)">
       <defs>
        <path id="DejaVuSans-34" d="M 2419 4116 
L 825 1625 
L 2419 1625 
L 2419 4116 
z
M 2253 4666 
L 3047 4666 
L 3047 1625 
L 3713 1625 
L 3713 1100 
L 3047 1100 
L 3047 0 
L 2419 0 
L 2419 1100 
L 313 1100 
L 313 1709 
L 2253 4666 
z
" transform="scale(0.015625)"/>
       </defs>
       <use xlink:href="#DejaVuSans-34"/>
       <use xlink:href="#DejaVuSans-30" x="63.623047"/>
      </g>
     </g>
    </g>
    <g id="xtick_6">
     <g id="line2d_6">
      <g>
       <use xlink:href="#m4d07c3d5fd" x="397.256818" y="370.6" style="stroke: #000000; stroke-width: 0.8"/>
      </g>
     </g>
     <g id="text_6">
      <!-- 50 -->
      <g transform="translate(387.076818 389.7575) scale(0.16 -0.16)">
       <defs>
        <path id="DejaVuSans-35" d="M 691 4666 
L 3169 4666 
L 3169 4134 
L 1269 4134 
L 1269 2991 
Q 1406 3038 1543 3061 
Q 1681 3084 1819 3084 
Q 2600 3084 3056 2656 
Q 3513 2228 3513 1497 
Q 3513 744 3044 326 
Q 2575 -91 1722 -91 
Q 1428 -91 1123 -41 
Q 819 9 494 109 
L 494 744 
Q 775 591 1075 516 
Q 1375 441 1709 441 
Q 2250 441 2565 725 
Q 2881 1009 2881 1497 
Q 2881 1984 2565 2268 
Q 2250 2553 1709 2553 
Q 1456 2553 1204 2497 
Q 953 2441 691 2322 
L 691 4666 
z
" transform="scale(0.015625)"/>
       </defs>
       <use xlink:href="#DejaVuSans-35"/>
       <use xlink:href="#DejaVuSans-30" x="63.623047"/>
      </g>
     </g>
    </g>
    <g id="text_7">
     <!-- Sample -->
     <g transform="translate(211.5275 409.2425) scale(0.16 -0.16)">
      <defs>
       <path id="DejaVuSans-53" d="M 3425 4513 
L 3425 3897 
Q 3066 4069 2747 4153 
Q 2428 4238 2131 4238 
Q 1616 4238 1336 4038 
Q 1056 3838 1056 3469 
Q 1056 3159 1242 3001 
Q 1428 2844 1947 2747 
L 2328 2669 
Q 3034 2534 3370 2195 
Q 3706 1856 3706 1288 
Q 3706 609 3251 259 
Q 2797 -91 1919 -91 
Q 1588 -91 1214 -16 
Q 841 59 441 206 
L 441 856 
Q 825 641 1194 531 
Q 1563 422 1919 422 
Q 2459 422 2753 634 
Q 3047 847 3047 1241 
Q 3047 1584 2836 1778 
Q 2625 1972 2144 2069 
L 1759 2144 
Q 1053 2284 737 2584 
Q 422 2884 422 3419 
Q 422 4038 858 4394 
Q 1294 4750 2059 4750 
Q 2388 4750 2728 4690 
Q 3069 4631 3425 4513 
z
" transform="scale(0.015625)"/>
       <path id="DejaVuSans-61" d="M 2194 1759 
Q 1497 1759 1228 1600 
Q 959 1441 959 1056 
Q 959 750 1161 570 
Q 1363 391 1709 391 
Q 2188 391 2477 730 
Q 2766 1069 2766 1631 
L 2766 1759 
L 2194 1759 
z
M 3341 1997 
L 3341 0 
L 2766 0 
L 2766 531 
Q 2569 213 2275 61 
Q 1981 -91 1556 -91 
Q 1019 -91 701 211 
Q 384 513 384 1019 
Q 384 1609 779 1909 
Q 1175 2209 1959 2209 
L 2766 2209 
L 2766 2266 
Q 2766 2663 2505 2880 
Q 2244 3097 1772 3097 
Q 1472 3097 1187 3025 
Q 903 2953 641 2809 
L 641 3341 
Q 956 3463 1253 3523 
Q 1550 3584 1831 3584 
Q 2591 3584 2966 3190 
Q 3341 2797 3341 1997 
z
" transform="scale(0.015625)"/>
       <path id="DejaVuSans-6d" d="M 3328 2828 
Q 3544 3216 3844 3400 
Q 4144 3584 4550 3584 
Q 5097 3584 5394 3201 
Q 5691 2819 5691 2113 
L 5691 0 
L 5113 0 
L 5113 2094 
Q 5113 2597 4934 2840 
Q 4756 3084 4391 3084 
Q 3944 3084 3684 2787 
Q 3425 2491 3425 1978 
L 3425 0 
L 2847 0 
L 2847 2094 
Q 2847 2600 2669 2842 
Q 2491 3084 2119 3084 
Q 1678 3084 1418 2786 
Q 1159 2488 1159 1978 
L 1159 0 
L 581 0 
L 581 3500 
L 1159 3500 
L 1159 2956 
Q 1356 3278 1631 3431 
Q 1906 3584 2284 3584 
Q 2666 3584 2933 3390 
Q 3200 3197 3328 2828 
z
" transform="scale(0.015625)"/>
       <path id="DejaVuSans-70" d="M 1159 525 
L 1159 -1331 
L 581 -1331 
L 581 3500 
L 1159 3500 
L 1159 2969 
Q 1341 3281 1617 3432 
Q 1894 3584 2278 3584 
Q 2916 3584 3314 3078 
Q 3713 2572 3713 1747 
Q 3713 922 3314 415 
Q 2916 -91 2278 -91 
Q 1894 -91 1617 61 
Q 1341 213 1159 525 
z
M 3116 1747 
Q 3116 2381 2855 2742 
Q 2594 3103 2138 3103 
Q 1681 3103 1420 2742 
Q 1159 2381 1159 1747 
Q 1159 1113 1420 752 
Q 1681 391 2138 391 
Q 2594 391 2855 752 
Q 3116 1113 3116 1747 
z
" transform="scale(0.015625)"/>
       <path id="DejaVuSans-6c" d="M 603 4863 
L 1178 4863 
L 1178 0 
L 603 0 
L 603 4863 
z
" transform="scale(0.015625)"/>
       <path id="DejaVuSans-65" d="M 3597 1894 
L 3597 1613 
L 953 1613 
Q 991 1019 1311 708 
Q 1631 397 2203 397 
Q 2534 397 2845 478 
Q 3156 559 3463 722 
L 3463 178 
Q 3153 47 2828 -22 
Q 2503 -91 2169 -91 
Q 1331 -91 842 396 
Q 353 884 353 1716 
Q 353 2575 817 3079 
Q 1281 3584 2069 3584 
Q 2775 3584 3186 3129 
Q 3597 2675 3597 1894 
z
M 3022 2063 
Q 3016 2534 2758 2815 
Q 2500 3097 2075 3097 
Q 1594 3097 1305 2825 
Q 1016 2553 972 2059 
L 3022 2063 
z
" transform="scale(0.015625)"/>
      </defs>
      <use xlink:href="#DejaVuSans-53"/>
      <use xlink:href="#DejaVuSans-61" x="63.476562"/>
      <use xlink:href="#DejaVuSans-6d" x="124.755859"/>
      <use xlink:href="#DejaVuSans-70" x="222.167969"/>
      <use xlink:href="#DejaVuSans-6c" x="285.644531"/>
      <use xlink:href="#DejaVuSans-65" x="313.427734"/>
     </g>
    </g>
   </g>
   <g id="matplotlib.axis_2">
    <g id="ytick_1">
     <g id="line2d_7">
      <defs>
       <path id="md78fd29356" d="M 0 0 
L -3.5 0 
" style="stroke: #000000; stroke-width: 0.8"/>
      </defs>
      <g>
       <use xlink:href="#md78fd29356" x="70.22" y="355.467273" style="stroke: #000000; stroke-width: 0.8"/>
      </g>
     </g>
     <g id="text_8">
      <!-- 0.0 -->
      <g transform="translate(37.775 361.546023) scale(0.16 -0.16)">
       <defs>
        <path id="DejaVuSans-2e" d="M 684 794 
L 1344 794 
L 1344 0 
L 684 0 
L 684 794 
z
" transform="scale(0.015625)"/>
       </defs>
       <use xlink:href="#DejaVuSans-30"/>
       <use xlink:href="#DejaVuSans-2e" x="63.623047"/>
       <use xlink:href="#DejaVuSans-30" x="95.410156"/>
      </g>
     </g>
    </g>
    <g id="ytick_2">
     <g id="line2d_8">
      <g>
       <use xlink:href="#md78fd29356" x="70.22" y="294.936364" style="stroke: #000000; stroke-width: 0.8"/>
      </g>
     </g>
     <g id="text_9">
      <!-- 0.2 -->
      <g transform="translate(37.775 301.015114) scale(0.16 -0.16)">
       <use xlink:href="#DejaVuSans-30"/>
       <use xlink:href="#DejaVuSans-2e" x="63.623047"/>
       <use xlink:href="#DejaVuSans-32" x="95.410156"/>
      </g>
     </g>
    </g>
    <g id="ytick_3">
     <g id="line2d_9">
      <g>
       <use xlink:href="#md78fd29356" x="70.22" y="234.405455" style="stroke: #000000; stroke-width: 0.8"/>
      </g>
     </g>
     <g id="text_10">
      <!-- 0.4 -->
      <g transform="translate(37.775 240.484205) scale(0.16 -0.16)">
       <use xlink:href="#DejaVuSans-30"/>
       <use xlink:href="#DejaVuSans-2e" x="63.623047"/>
       <use xlink:href="#DejaVuSans-34" x="95.410156"/>
      </g>
     </g>
    </g>
    <g id="ytick_4">
     <g id="line2d_10">
      <g>
       <use xlink:href="#md78fd29356" x="70.22" y="173.874545" style="stroke: #000000; stroke-width: 0.8"/>
      </g>
     </g>
     <g id="text_11">
      <!-- 0.6 -->
      <g transform="translate(37.775 179.953295) scale(0.16 -0.16)">
       <defs>
        <path id="DejaVuSans-36" d="M 2113 2584 
Q 1688 2584 1439 2293 
Q 1191 2003 1191 1497 
Q 1191 994 1439 701 
Q 1688 409 2113 409 
Q 2538 409 2786 701 
Q 3034 994 3034 1497 
Q 3034 2003 2786 2293 
Q 2538 2584 2113 2584 
z
M 3366 4563 
L 3366 3988 
Q 3128 4100 2886 4159 
Q 2644 4219 2406 4219 
Q 1781 4219 1451 3797 
Q 1122 3375 1075 2522 
Q 1259 2794 1537 2939 
Q 1816 3084 2150 3084 
Q 2853 3084 3261 2657 
Q 3669 2231 3669 1497 
Q 3669 778 3244 343 
Q 2819 -91 2113 -91 
Q 1303 -91 875 529 
Q 447 1150 447 2328 
Q 447 3434 972 4092 
Q 1497 4750 2381 4750 
Q 2619 4750 2861 4703 
Q 3103 4656 3366 4563 
z
" transform="scale(0.015625)"/>
       </defs>
       <use xlink:href="#DejaVuSans-30"/>
       <use xlink:href="#DejaVuSans-2e" x="63.623047"/>
       <use xlink:href="#DejaVuSans-36" x="95.410156"/>
      </g>
     </g>
    </g>
    <g id="ytick_5">
     <g id="line2d_11">
      <g>
       <use xlink:href="#md78fd29356" x="70.22" y="113.343636" style="stroke: #000000; stroke-width: 0.8"/>
      </g>
     </g>
     <g id="text_12">
      <!-- 0.8 -->
      <g transform="translate(37.775 119.422386) scale(0.16 -0.16)">
       <defs>
        <path id="DejaVuSans-38" d="M 2034 2216 
Q 1584 2216 1326 1975 
Q 1069 1734 1069 1313 
Q 1069 891 1326 650 
Q 1584 409 2034 409 
Q 2484 409 2743 651 
Q 3003 894 3003 1313 
Q 3003 1734 2745 1975 
Q 2488 2216 2034 2216 
z
M 1403 2484 
Q 997 2584 770 2862 
Q 544 3141 544 3541 
Q 544 4100 942 4425 
Q 1341 4750 2034 4750 
Q 2731 4750 3128 4425 
Q 3525 4100 3525 3541 
Q 3525 3141 3298 2862 
Q 3072 2584 2669 2484 
Q 3125 2378 3379 2068 
Q 3634 1759 3634 1313 
Q 3634 634 3220 271 
Q 2806 -91 2034 -91 
Q 1263 -91 848 271 
Q 434 634 434 1313 
Q 434 1759 690 2068 
Q 947 2378 1403 2484 
z
M 1172 3481 
Q 1172 3119 1398 2916 
Q 1625 2713 2034 2713 
Q 2441 2713 2670 2916 
Q 2900 3119 2900 3481 
Q 2900 3844 2670 4047 
Q 2441 4250 2034 4250 
Q 1625 4250 1398 4047 
Q 1172 3844 1172 3481 
z
" transform="scale(0.015625)"/>
       </defs>
       <use xlink:href="#DejaVuSans-30"/>
       <use xlink:href="#DejaVuSans-2e" x="63.623047"/>
       <use xlink:href="#DejaVuSans-38" x="95.410156"/>
      </g>
     </g>
    </g>
    <g id="ytick_6">
     <g id="line2d_12">
      <g>
       <use xlink:href="#md78fd29356" x="70.22" y="52.812727" style="stroke: #000000; stroke-width: 0.8"/>
      </g>
     </g>
     <g id="text_13">
      <!-- 1.0 -->
      <g transform="translate(37.775 58.891477) scale(0.16 -0.16)">
       <use xlink:href="#DejaVuSans-31"/>
       <use xlink:href="#DejaVuSans-2e" x="63.623047"/>
       <use xlink:href="#DejaVuSans-30" x="95.410156"/>
      </g>
     </g>
    </g>
    <g id="text_14">
     <!-- Amplitude -->
     <g transform="translate(30.4475 245.13625) rotate(-90) scale(0.16 -0.16)">
      <defs>
       <path id="DejaVuSans-41" d="M 2188 4044 
L 1331 1722 
L 3047 1722 
L 2188 4044 
z
M 1831 4666 
L 2547 4666 
L 4325 0 
L 3669 0 
L 3244 1197 
L 1141 1197 
L 716 0 
L 50 0 
L 1831 4666 
z
" transform="scale(0.015625)"/>
       <path id="DejaVuSans-69" d="M 603 3500 
L 1178 3500 
L 1178 0 
L 603 0 
L 603 3500 
z
M 603 4863 
L 1178 4863 
L 1178 4134 
L 603 4134 
L 603 4863 
z
" transform="scale(0.015625)"/>
       <path id="DejaVuSans-74" d="M 1172 4494 
L 1172 3500 
L 2356 3500 
L 2356 3053 
L 1172 3053 
L 1172 1153 
Q 1172 725 1289 603 
Q 1406 481 1766 481 
L 2356 481 
L 2356 0 
L 1766 0 
Q 1100 0 847 248 
Q 594 497 594 1153 
L 594 3053 
L 172 3053 
L 172 3500 
L 594 3500 
L 594 4494 
L 1172 4494 
z
" transform="scale(0.015625)"/>
       <path id="DejaVuSans-75" d="M 544 1381 
L 544 3500 
L 1119 3500 
L 1119 1403 
Q 1119 906 1312 657 
Q 1506 409 1894 409 
Q 2359 409 2629 706 
Q 2900 1003 2900 1516 
L 2900 3500 
L 3475 3500 
L 3475 0 
L 2900 0 
L 2900 538 
Q 2691 219 2414 64 
Q 2138 -91 1772 -91 
Q 1169 -91 856 284 
Q 544 659 544 1381 
z
M 1991 3584 
L 1991 3584 
z
" transform="scale(0.015625)"/>
       <path id="DejaVuSans-64" d="M 2906 2969 
L 2906 4863 
L 3481 4863 
L 3481 0 
L 2906 0 
L 2906 525 
Q 2725 213 2448 61 
Q 2172 -91 1784 -91 
Q 1150 -91 751 415 
Q 353 922 353 1747 
Q 353 2572 751 3078 
Q 1150 3584 1784 3584 
Q 2172 3584 2448 3432 
Q 2725 3281 2906 2969 
z
M 947 1747 
Q 947 1113 1208 752 
Q 1469 391 1925 391 
Q 2381 391 2643 752 
Q 2906 1113 2906 1747 
Q 2906 2381 2643 2742 
Q 2381 3103 1925 3103 
Q 1469 3103 1208 2742 
Q 947 2381 947 1747 
z
" transform="scale(0.015625)"/>
      </defs>
      <use xlink:href="#DejaVuSans-41"/>
      <use xlink:href="#DejaVuSans-6d" x="68.408203"/>
      <use xlink:href="#DejaVuSans-70" x="165.820312"/>
      <use xlink:href="#DejaVuSans-6c" x="229.296875"/>
      <use xlink:href="#DejaVuSans-69" x="257.080078"/>
      <use xlink:href="#DejaVuSans-74" x="284.863281"/>
      <use xlink:href="#DejaVuSans-75" x="324.072266"/>
      <use xlink:href="#DejaVuSans-64" x="387.451172"/>
      <use xlink:href="#DejaVuSans-65" x="450.927734"/>
     </g>
    </g>
   </g>
   <g id="line2d_13">
    <path d="M 85.793182 52.812727 
L 92.022455 52.812727 
L 98.251727 52.812727 
L 104.481 52.812727 
L 110.710273 52.812727 
L 116.939545 52.812727 
L 123.168818 52.812727 
L 129.398091 52.812727 
L 135.627364 52.812727 
L 141.856636 52.812727 
L 148.085909 52.812727 
L 154.315182 52.812727 
L 160.544455 52.812727 
L 166.773727 52.812727 
L 173.003 52.812727 
L 179.232273 52.812727 
L 185.461545 52.812727 
L 191.690818 52.812727 
L 197.920091 52.812727 
L 204.149364 52.812727 
L 210.378636 52.812727 
L 216.607909 52.812727 
L 222.837182 52.812727 
L 229.066455 52.812727 
L 235.295727 52.812727 
L 241.525 52.812727 
L 247.754273 52.812727 
L 253.983545 52.812727 
L 260.212818 52.812727 
L 266.442091 52.812727 
L 272.671364 52.812727 
L 278.900636 52.812727 
L 285.129909 52.812727 
L 291.359182 52.812727 
L 297.588455 52.812727 
L 303.817727 52.812727 
L 310.047 52.812727 
L 316.276273 52.812727 
L 322.505545 52.812727 
L 328.734818 52.812727 
L 334.964091 52.812727 
L 341.193364 52.812727 
L 347.422636 52.812727 
L 353.651909 52.812727 
L 359.881182 52.812727 
L 366.110455 52.812727 
L 372.339727 52.812727 
L 378.569 52.812727 
L 384.798273 52.812727 
L 391.027545 52.812727 
L 397.256818 52.812727 
" clip-path="url(#p54a9aa1877)" style="fill: none; stroke: #1f77b4; stroke-width: 1.5; stroke-linecap: square"/>
   </g>
   <g id="line2d_14">
    <path d="M 85.793182 355.467273 
L 92.022455 343.598467 
L 98.251727 331.729661 
L 104.481 319.860856 
L 110.710273 307.99205 
L 116.939545 296.123244 
L 123.168818 284.254439 
L 129.398091 272.385633 
L 135.627364 260.516827 
L 141.856636 248.648021 
L 148.085909 236.779216 
L 154.315182 224.91041 
L 160.544455 213.041604 
L 166.773727 201.172799 
L 173.003 189.303993 
L 179.232273 177.435187 
L 185.461545 165.566381 
L 191.690818 153.697576 
L 197.920091 141.82877 
L 204.149364 129.959964 
L 210.378636 118.091159 
L 216.607909 106.222353 
L 222.837182 94.353547 
L 229.066455 82.484742 
L 235.295727 70.615936 
L 241.525 58.74713 
L 247.754273 58.74713 
L 253.983545 70.615936 
L 260.212818 82.484742 
L 266.442091 94.353547 
L 272.671364 106.222353 
L 278.900636 118.091159 
L 285.129909 129.959964 
L 291.359182 141.82877 
L 297.588455 153.697576 
L 303.817727 165.566381 
L 310.047 177.435187 
L 316.276273 189.303993 
L 322.505545 201.172799 
L 328.734818 213.041604 
L 334.964091 224.91041 
L 341.193364 236.779216 
L 347.422636 248.648021 
L 353.651909 260.516827 
L 359.881182 272.385633 
L 366.110455 284.254439 
L 372.339727 296.123244 
L 378.569 307.99205 
L 384.798273 319.860856 
L 391.027545 331.729661 
L 397.256818 343.598467 
" clip-path="url(#p54a9aa1877)" style="fill: none; stroke: #ff7f0e; stroke-width: 1.5; stroke-linecap: square"/>
   </g>
   <g id="line2d_15">
    <path d="M 85.793182 355.467273 
L 92.022455 354.320289 
L 98.251727 350.896725 
L 104.481 345.248479 
L 110.710273 337.461173 
L 116.939545 327.652853 
L 123.168818 315.972204 
L 129.398091 302.596293 
L 135.627364 287.727885 
L 141.856636 271.59237 
L 148.085909 254.434345 
L 154.315182 236.51391 
L 160.544455 218.102719 
L 166.773727 199.479868 
L 173.003 180.927659 
L 179.232273 162.727326 
L 185.461545 145.154767 
L 191.690818 128.476364 
L 197.920091 112.944944 
L 204.149364 98.795949 
L 210.378636 86.243861 
L 216.607909 75.47896 
L 222.837182 66.664428 
L 229.066455 59.933886 
L 235.295727 55.389362 
L 241.525 53.099745 
L 247.754273 53.099745 
L 253.983545 55.389362 
L 260.212818 59.933886 
L 266.442091 66.664428 
L 272.671364 75.47896 
L 278.900636 86.243861 
L 285.129909 98.795949 
L 291.359182 112.944944 
L 297.588455 128.476364 
L 303.817727 145.154767 
L 310.047 162.727326 
L 316.276273 180.927659 
L 322.505545 199.479868 
L 328.734818 218.102719 
L 334.964091 236.51391 
L 341.193364 254.434345 
L 347.422636 271.59237 
L 353.651909 287.727885 
L 359.881182 302.596293 
L 366.110455 315.972204 
L 372.339727 327.652853 
L 378.569 337.461173 
L 384.798273 345.248479 
L 391.027545 350.896725 
L 397.256818 354.320289 
" clip-path="url(#p54a9aa1877)" style="fill: none; stroke: #2ca02c; stroke-width: 1.5; stroke-linecap: square"/>
   </g>
   <g id="line2d_16">
    <path d="M 85.793182 331.254909 
L 92.022455 330.199684 
L 98.251727 327.050006 
L 104.481 321.853619 
L 110.710273 314.689297 
L 116.939545 305.665643 
L 123.168818 294.919446 
L 129.398091 282.613608 
L 135.627364 268.934672 
L 141.856636 254.089998 
L 148.085909 238.304616 
L 154.315182 221.817815 
L 160.544455 204.87952 
L 166.773727 187.746497 
L 173.003 170.678465 
L 179.232273 153.934158 
L 185.461545 137.767404 
L 191.690818 122.423273 
L 197.920091 108.134367 
L 204.149364 95.117291 
L 210.378636 83.569371 
L 216.607909 73.665661 
L 222.837182 65.556292 
L 229.066455 59.364193 
L 235.295727 55.183231 
L 241.525 53.076784 
L 247.754273 53.076784 
L 253.983545 55.183231 
L 260.212818 59.364193 
L 266.442091 65.556292 
L 272.671364 73.665661 
L 278.900636 83.569371 
L 285.129909 95.117291 
L 291.359182 108.134367 
L 297.588455 122.423273 
L 303.817727 137.767404 
L 310.047 153.934158 
L 316.276273 170.678465 
L 322.505545 187.746497 
L 328.734818 204.87952 
L 334.964091 221.817815 
L 341.193364 238.304616 
L 347.422636 254.089998 
L 353.651909 268.934672 
L 359.881182 282.613608 
L 366.110455 294.919446 
L 372.339727 305.665643 
L 378.569 314.689297 
L 384.798273 321.853619 
L 391.027545 327.050006 
L 397.256818 330.199684 
" clip-path="url(#p54a9aa1877)" style="fill: none; stroke: #d62728; stroke-width: 1.5; stroke-linecap: square"/>
   </g>
   <g id="line2d_17">
    <path d="M 85.793182 355.467273 
L 92.022455 355.051577 
L 98.251727 353.777701 
L 104.481 351.56769 
L 110.710273 348.299475 
L 116.939545 343.818121 
L 123.168818 337.950533 
L 129.398091 330.522631 
L 135.627364 321.377886 
L 141.856636 310.395942 
L 148.085909 297.510091 
L 154.315182 282.722365 
L 160.544455 266.115185 
L 166.773727 247.858672 
L 173.003 228.213001 
L 179.232273 207.525456 
L 185.461545 186.222179 
L 191.690818 164.794909 
L 197.920091 143.783335 
L 204.149364 123.753933 
L 210.378636 105.276399 
L 216.607909 88.898944 
L 222.837182 75.123785 
L 229.066455 64.384193 
L 235.295727 57.024369 
L 241.525 53.283263 
L 247.754273 53.283263 
L 253.983545 57.024369 
L 260.212818 64.384193 
L 266.442091 75.123785 
L 272.671364 88.898944 
L 278.900636 105.276399 
L 285.129909 123.753933 
L 291.359182 143.783335 
L 297.588455 164.794909 
L 303.817727 186.222179 
L 310.047 207.525456 
L 316.276273 228.213001 
L 322.505545 247.858672 
L 328.734818 266.115185 
L 334.964091 282.722365 
L 341.193364 297.510091 
L 347.422636 310.395942 
L 353.651909 321.377886 
L 359.881182 330.522631 
L 366.110455 337.950533 
L 372.339727 343.818121 
L 378.569 348.299475 
L 384.798273 351.56769 
L 391.027545 353.777701 
L 397.256818 355.051577 
" clip-path="url(#p54a9aa1877)" style="fill: none; stroke: #9467bd; stroke-width: 1.5; stroke-linecap: square"/>
   </g>
   <g id="line2d_18">
    <path d="M 85.793182 355.464934 
L 92.022455 355.443393 
L 98.251727 355.37312 
L 104.481 355.197678 
L 110.710273 354.823732 
L 116.939545 354.109986 
L 123.168818 352.857933 
L 129.398091 350.806778 
L 135.627364 347.635057 
L 141.856636 342.971167 
L 148.085909 336.414301 
L 154.315182 327.566039 
L 160.544455 316.07134 
L 166.773727 301.665921 
L 173.003 284.22549 
L 179.232273 263.811024 
L 185.461545 240.703784 
L 191.690818 215.424021 
L 197.920091 188.728548 
L 204.149364 161.584378 
L 210.378636 135.118361 
L 216.607909 110.545692 
L 222.837182 89.083085 
L 229.066455 71.854724 
L 235.295727 59.800547 
L 241.525 53.596657 
L 247.754273 53.596657 
L 253.983545 59.800547 
L 260.212818 71.854724 
L 266.442091 89.083085 
L 272.671364 110.545692 
L 278.900636 135.118361 
L 285.129909 161.584378 
L 291.359182 188.728548 
L 297.588455 215.424021 
L 303.817727 240.703784 
L 310.047 263.811024 
L 316.276273 284.22549 
L 322.505545 301.665921 
L 328.734818 316.07134 
L 334.964091 327.566039 
L 341.193364 336.414301 
L 347.422636 342.971167 
L 353.651909 347.635057 
L 359.881182 350.806778 
L 366.110455 352.857933 
L 372.339727 354.109986 
L 378.569 354.823732 
L 384.798273 355.197678 
L 391.027545 355.37312 
L 397.256818 355.443393 
" clip-path="url(#p54a9aa1877)" style="fill: none; stroke: #8c564b; stroke-width: 1.5; stroke-linecap: square"/>
   </g>
   <g id="patch_3">
    <path d="M 70.22 370.6 
L 70.22 37.68 
" style="fill: none; stroke: #000000; stroke-width: 0.8; stroke-linejoin: miter; stroke-linecap: square"/>
   </g>
   <g id="patch_4">
    <path d="M 412.83 370.6 
L 412.83 37.68 
" style="fill: none; stroke: #000000; stroke-width: 0.8; stroke-linejoin: miter; stroke-linecap: square"/>
   </g>
   <g id="patch_5">
    <path d="M 70.22 370.6 
L 412.83 370.6 
" style="fill: none; stroke: #000000; stroke-width: 0.8; stroke-linejoin: miter; stroke-linecap: square"/>
   </g>
   <g id="patch_6">
    <path d="M 70.22 37.68 
L 412.83 37.68 
" style="fill: none; stroke: #000000; stroke-width: 0.8; stroke-linejoin: miter; stroke-linecap: square"/>
   </g>
   <g id="text_15">
    <!-- Window Functions in Time Domain -->
    <g transform="translate(76.1545 31.68) scale(0.192 -0.192)">
     <defs>
      <path id="DejaVuSans-57" d="M 213 4666 
L 850 4666 
L 1831 722 
L 2809 4666 
L 3519 4666 
L 4500 722 
L 5478 4666 
L 6119 4666 
L 4947 0 
L 4153 0 
L 3169 4050 
L 2175 0 
L 1381 0 
L 213 4666 
z
" transform="scale(0.015625)"/>
      <path id="DejaVuSans-6e" d="M 3513 2113 
L 3513 0 
L 2938 0 
L 2938 2094 
Q 2938 2591 2744 2837 
Q 2550 3084 2163 3084 
Q 1697 3084 1428 2787 
Q 1159 2491 1159 1978 
L 1159 0 
L 581 0 
L 581 3500 
L 1159 3500 
L 1159 2956 
Q 1366 3272 1645 3428 
Q 1925 3584 2291 3584 
Q 2894 3584 3203 3211 
Q 3513 2838 3513 2113 
z
" transform="scale(0.015625)"/>
      <path id="DejaVuSans-6f" d="M 1959 3097 
Q 1497 3097 1228 2736 
Q 959 2375 959 1747 
Q 959 1119 1226 758 
Q 1494 397 1959 397 
Q 2419 397 2687 759 
Q 2956 1122 2956 1747 
Q 2956 2369 2687 2733 
Q 2419 3097 1959 3097 
z
M 1959 3584 
Q 2709 3584 3137 3096 
Q 3566 2609 3566 1747 
Q 3566 888 3137 398 
Q 2709 -91 1959 -91 
Q 1206 -91 779 398 
Q 353 888 353 1747 
Q 353 2609 779 3096 
Q 1206 3584 1959 3584 
z
" transform="scale(0.015625)"/>
      <path id="DejaVuSans-77" d="M 269 3500 
L 844 3500 
L 1563 769 
L 2278 3500 
L 2956 3500 
L 3675 769 
L 4391 3500 
L 4966 3500 
L 4050 0 
L 3372 0 
L 2619 2869 
L 1863 0 
L 1184 0 
L 269 3500 
z
" transform="scale(0.015625)"/>
      <path id="DejaVuSans-20" transform="scale(0.015625)"/>
      <path id="DejaVuSans-46" d="M 628 4666 
L 3309 4666 
L 3309 4134 
L 1259 4134 
L 1259 2759 
L 3109 2759 
L 3109 2228 
L 1259 2228 
L 1259 0 
L 628 0 
L 628 4666 
z
" transform="scale(0.015625)"/>
      <path id="DejaVuSans-63" d="M 3122 3366 
L 3122 2828 
Q 2878 2963 2633 3030 
Q 2388 3097 2138 3097 
Q 1578 3097 1268 2742 
Q 959 2388 959 1747 
Q 959 1106 1268 751 
Q 1578 397 2138 397 
Q 2388 397 2633 464 
Q 2878 531 3122 666 
L 3122 134 
Q 2881 22 2623 -34 
Q 2366 -91 2075 -91 
Q 1284 -91 818 406 
Q 353 903 353 1747 
Q 353 2603 823 3093 
Q 1294 3584 2113 3584 
Q 2378 3584 2631 3529 
Q 2884 3475 3122 3366 
z
" transform="scale(0.015625)"/>
      <path id="DejaVuSans-73" d="M 2834 3397 
L 2834 2853 
Q 2591 2978 2328 3040 
Q 2066 3103 1784 3103 
Q 1356 3103 1142 2972 
Q 928 2841 928 2578 
Q 928 2378 1081 2264 
Q 1234 2150 1697 2047 
L 1894 2003 
Q 2506 1872 2764 1633 
Q 3022 1394 3022 966 
Q 3022 478 2636 193 
Q 2250 -91 1575 -91 
Q 1294 -91 989 -36 
Q 684 19 347 128 
L 347 722 
Q 666 556 975 473 
Q 1284 391 1588 391 
Q 1994 391 2212 530 
Q 2431 669 2431 922 
Q 2431 1156 2273 1281 
Q 2116 1406 1581 1522 
L 1381 1569 
Q 847 1681 609 1914 
Q 372 2147 372 2553 
Q 372 3047 722 3315 
Q 1072 3584 1716 3584 
Q 2034 3584 2315 3537 
Q 2597 3491 2834 3397 
z
" transform="scale(0.015625)"/>
      <path id="DejaVuSans-54" d="M -19 4666 
L 3928 4666 
L 3928 4134 
L 2272 4134 
L 2272 0 
L 1638 0 
L 1638 4134 
L -19 4134 
L -19 4666 
z
" transform="scale(0.015625)"/>
      <path id="DejaVuSans-44" d="M 1259 4147 
L 1259 519 
L 2022 519 
Q 2988 519 3436 956 
Q 3884 1394 3884 2338 
Q 3884 3275 3436 3711 
Q 2988 4147 2022 4147 
L 1259 4147 
z
M 628 4666 
L 1925 4666 
Q 3281 4666 3915 4102 
Q 4550 3538 4550 2338 
Q 4550 1131 3912 565 
Q 3275 0 1925 0 
L 628 0 
L 628 4666 
z
" transform="scale(0.015625)"/>
     </defs>
     <use xlink:href="#DejaVuSans-57"/>
     <use xlink:href="#DejaVuSans-69" x="96.626953"/>
     <use xlink:href="#DejaVuSans-6e" x="124.410156"/>
     <use xlink:href="#DejaVuSans-64" x="187.789062"/>
     <use xlink:href="#DejaVuSans-6f" x="251.265625"/>
     <use xlink:href="#DejaVuSans-77" x="312.447266"/>
     <use xlink:href="#DejaVuSans-20" x="394.234375"/>
     <use xlink:href="#DejaVuSans-46" x="426.021484"/>
     <use xlink:href="#DejaVuSans-75" x="478.041016"/>
     <use xlink:href="#DejaVuSans-6e" x="541.419922"/>
     <use xlink:href="#DejaVuSans-63" x="604.798828"/>
     <use xlink:href="#DejaVuSans-74" x="659.779297"/>
     <use xlink:href="#DejaVuSans-69" x="698.988281"/>
     <use xlink:href="#DejaVuSans-6f" x="726.771484"/>
     <use xlink:href="#DejaVuSans-6e" x="787.953125"/>
     <use xlink:href="#DejaVuSans-73" x="851.332031"/>
     <use xlink:href="#DejaVuSans-20" x="903.431641"/>
     <use xlink:href="#DejaVuSans-69" x="935.21875"/>
     <use xlink:href="#DejaVuSans-6e" x="963.001953"/>
     <use xlink:href="#DejaVuSans-20" x="1026.380859"/>
     <use xlink:href="#DejaVuSans-54" x="1058.167969"/>
     <use xlink:href="#DejaVuSans-69" x="1116.126953"/>
     <use xlink:href="#DejaVuSans-6d" x="1143.910156"/>
     <use xlink:href="#DejaVuSans-65" x="1241.322266"/>
     <use xlink:href="#DejaVuSans-20" x="1302.845703"/>
     <use xlink:href="#DejaVuSans-44" x="1334.632812"/>
     <use xlink:href="#DejaVuSans-6f" x="1411.634766"/>
     <use xlink:href="#DejaVuSans-6d" x="1472.816406"/>
     <use xlink:href="#DejaVuSans-61" x="1570.228516"/>
     <use xlink:href="#DejaVuSans-69" x="1631.507812"/>
     <use xlink:href="#DejaVuSans-6e" x="1659.291016"/>
    </g>
   </g>
   <g id="legend_1">
    <g id="patch_7">
     <path d="M 176.515 362.6 
L 306.535 362.6 
Q 309.735 362.6 309.735 359.4 
L 309.735 220.09 
Q 309.735 216.89 306.535 216.89 
L 176.515 216.89 
Q 173.315 216.89 173.315 220.09 
L 173.315 359.4 
Q 173.315 362.6 176.515 362.6 
z
" style="fill: #ffffff; opacity: 0.8; stroke: #cccccc; stroke-linejoin: miter"/>
    </g>
    <g id="line2d_19">
     <path d="M 179.715 229.8475 
L 195.715 229.8475 
L 211.715 229.8475 
" style="fill: none; stroke: #1f77b4; stroke-width: 1.5; stroke-linecap: square"/>
    </g>
    <g id="text_16">
     <!-- Boxcar -->
     <g transform="translate(224.515 235.4475) scale(0.16 -0.16)">
      <defs>
       <path id="DejaVuSans-42" d="M 1259 2228 
L 1259 519 
L 2272 519 
Q 2781 519 3026 730 
Q 3272 941 3272 1375 
Q 3272 1813 3026 2020 
Q 2781 2228 2272 2228 
L 1259 2228 
z
M 1259 4147 
L 1259 2741 
L 2194 2741 
Q 2656 2741 2882 2914 
Q 3109 3088 3109 3444 
Q 3109 3797 2882 3972 
Q 2656 4147 2194 4147 
L 1259 4147 
z
M 628 4666 
L 2241 4666 
Q 2963 4666 3353 4366 
Q 3744 4066 3744 3513 
Q 3744 3084 3544 2831 
Q 3344 2578 2956 2516 
Q 3422 2416 3680 2098 
Q 3938 1781 3938 1306 
Q 3938 681 3513 340 
Q 3088 0 2303 0 
L 628 0 
L 628 4666 
z
" transform="scale(0.015625)"/>
       <path id="DejaVuSans-78" d="M 3513 3500 
L 2247 1797 
L 3578 0 
L 2900 0 
L 1881 1375 
L 863 0 
L 184 0 
L 1544 1831 
L 300 3500 
L 978 3500 
L 1906 2253 
L 2834 3500 
L 3513 3500 
z
" transform="scale(0.015625)"/>
       <path id="DejaVuSans-72" d="M 2631 2963 
Q 2534 3019 2420 3045 
Q 2306 3072 2169 3072 
Q 1681 3072 1420 2755 
Q 1159 2438 1159 1844 
L 1159 0 
L 581 0 
L 581 3500 
L 1159 3500 
L 1159 2956 
Q 1341 3275 1631 3429 
Q 1922 3584 2338 3584 
Q 2397 3584 2469 3576 
Q 2541 3569 2628 3553 
L 2631 2963 
z
" transform="scale(0.015625)"/>
      </defs>
      <use xlink:href="#DejaVuSans-42"/>
      <use xlink:href="#DejaVuSans-6f" x="68.603516"/>
      <use xlink:href="#DejaVuSans-78" x="126.660156"/>
      <use xlink:href="#DejaVuSans-63" x="184.089844"/>
      <use xlink:href="#DejaVuSans-61" x="239.070312"/>
      <use xlink:href="#DejaVuSans-72" x="300.349609"/>
     </g>
    </g>
    <g id="line2d_20">
     <path d="M 179.715 253.3325 
L 195.715 253.3325 
L 211.715 253.3325 
" style="fill: none; stroke: #ff7f0e; stroke-width: 1.5; stroke-linecap: square"/>
    </g>
    <g id="text_17">
     <!-- Bartlett -->
     <g transform="translate(224.515 258.9325) scale(0.16 -0.16)">
      <use xlink:href="#DejaVuSans-42"/>
      <use xlink:href="#DejaVuSans-61" x="68.603516"/>
      <use xlink:href="#DejaVuSans-72" x="129.882812"/>
      <use xlink:href="#DejaVuSans-74" x="170.996094"/>
      <use xlink:href="#DejaVuSans-6c" x="210.205078"/>
      <use xlink:href="#DejaVuSans-65" x="237.988281"/>
      <use xlink:href="#DejaVuSans-74" x="299.511719"/>
      <use xlink:href="#DejaVuSans-74" x="338.720703"/>
     </g>
    </g>
    <g id="line2d_21">
     <path d="M 179.715 276.8175 
L 195.715 276.8175 
L 211.715 276.8175 
" style="fill: none; stroke: #2ca02c; stroke-width: 1.5; stroke-linecap: square"/>
    </g>
    <g id="text_18">
     <!-- Hann -->
     <g transform="translate(224.515 282.4175) scale(0.16 -0.16)">
      <defs>
       <path id="DejaVuSans-48" d="M 628 4666 
L 1259 4666 
L 1259 2753 
L 3553 2753 
L 3553 4666 
L 4184 4666 
L 4184 0 
L 3553 0 
L 3553 2222 
L 1259 2222 
L 1259 0 
L 628 0 
L 628 4666 
z
" transform="scale(0.015625)"/>
      </defs>
      <use xlink:href="#DejaVuSans-48"/>
      <use xlink:href="#DejaVuSans-61" x="75.195312"/>
      <use xlink:href="#DejaVuSans-6e" x="136.474609"/>
      <use xlink:href="#DejaVuSans-6e" x="199.853516"/>
     </g>
    </g>
    <g id="line2d_22">
     <path d="M 179.715 300.3025 
L 195.715 300.3025 
L 211.715 300.3025 
" style="fill: none; stroke: #d62728; stroke-width: 1.5; stroke-linecap: square"/>
    </g>
    <g id="text_19">
     <!-- Hamming -->
     <g transform="translate(224.515 305.9025) scale(0.16 -0.16)">
      <defs>
       <path id="DejaVuSans-67" d="M 2906 1791 
Q 2906 2416 2648 2759 
Q 2391 3103 1925 3103 
Q 1463 3103 1205 2759 
Q 947 2416 947 1791 
Q 947 1169 1205 825 
Q 1463 481 1925 481 
Q 2391 481 2648 825 
Q 2906 1169 2906 1791 
z
M 3481 434 
Q 3481 -459 3084 -895 
Q 2688 -1331 1869 -1331 
Q 1566 -1331 1297 -1286 
Q 1028 -1241 775 -1147 
L 775 -588 
Q 1028 -725 1275 -790 
Q 1522 -856 1778 -856 
Q 2344 -856 2625 -561 
Q 2906 -266 2906 331 
L 2906 616 
Q 2728 306 2450 153 
Q 2172 0 1784 0 
Q 1141 0 747 490 
Q 353 981 353 1791 
Q 353 2603 747 3093 
Q 1141 3584 1784 3584 
Q 2172 3584 2450 3431 
Q 2728 3278 2906 2969 
L 2906 3500 
L 3481 3500 
L 3481 434 
z
" transform="scale(0.015625)"/>
      </defs>
      <use xlink:href="#DejaVuSans-48"/>
      <use xlink:href="#DejaVuSans-61" x="75.195312"/>
      <use xlink:href="#DejaVuSans-6d" x="136.474609"/>
      <use xlink:href="#DejaVuSans-6d" x="233.886719"/>
      <use xlink:href="#DejaVuSans-69" x="331.298828"/>
      <use xlink:href="#DejaVuSans-6e" x="359.082031"/>
      <use xlink:href="#DejaVuSans-67" x="422.460938"/>
     </g>
    </g>
    <g id="line2d_23">
     <path d="M 179.715 323.7875 
L 195.715 323.7875 
L 211.715 323.7875 
" style="fill: none; stroke: #9467bd; stroke-width: 1.5; stroke-linecap: square"/>
    </g>
    <g id="text_20">
     <!-- Blackman -->
     <g transform="translate(224.515 329.3875) scale(0.16 -0.16)">
      <defs>
       <path id="DejaVuSans-6b" d="M 581 4863 
L 1159 4863 
L 1159 1991 
L 2875 3500 
L 3609 3500 
L 1753 1863 
L 3688 0 
L 2938 0 
L 1159 1709 
L 1159 0 
L 581 0 
L 581 4863 
z
" transform="scale(0.015625)"/>
      </defs>
      <use xlink:href="#DejaVuSans-42"/>
      <use xlink:href="#DejaVuSans-6c" x="68.603516"/>
      <use xlink:href="#DejaVuSans-61" x="96.386719"/>
      <use xlink:href="#DejaVuSans-63" x="157.666016"/>
      <use xlink:href="#DejaVuSans-6b" x="212.646484"/>
      <use xlink:href="#DejaVuSans-6d" x="270.556641"/>
      <use xlink:href="#DejaVuSans-61" x="367.96875"/>
      <use xlink:href="#DejaVuSans-6e" x="429.248047"/>
     </g>
    </g>
    <g id="line2d_24">
     <path d="M 179.715 347.2725 
L 195.715 347.2725 
L 211.715 347.2725 
" style="fill: none; stroke: #8c564b; stroke-width: 1.5; stroke-linecap: square"/>
    </g>
    <g id="text_21">
     <!-- Kaiser  -->
     <g transform="translate(224.515 352.8725) scale(0.16 -0.16)">
      <defs>
       <path id="DejaVuSans-4b" d="M 628 4666 
L 1259 4666 
L 1259 2694 
L 3353 4666 
L 4166 4666 
L 1850 2491 
L 4331 0 
L 3500 0 
L 1259 2247 
L 1259 0 
L 628 0 
L 628 4666 
z
" transform="scale(0.015625)"/>
      </defs>
      <use xlink:href="#DejaVuSans-4b"/>
      <use xlink:href="#DejaVuSans-61" x="63.826172"/>
      <use xlink:href="#DejaVuSans-69" x="125.105469"/>
      <use xlink:href="#DejaVuSans-73" x="152.888672"/>
      <use xlink:href="#DejaVuSans-65" x="204.988281"/>
      <use xlink:href="#DejaVuSans-72" x="266.511719"/>
      <use xlink:href="#DejaVuSans-20" x="307.625"/>
     </g>
    </g>
   </g>
  </g>
  <g id="axes_2">
   <g id="patch_8">
    <path d="M 491.42 370.6 
L 834.03 370.6 
L 834.03 37.68 
L 491.42 37.68 
L 491.42 370.6 
z
" style="fill: none"/>
   </g>
   <g id="matplotlib.axis_3">
    <g id="xtick_7">
     <g id="line2d_25">
      <g>
       <use xlink:href="#m4d07c3d5fd" x="491.42" y="370.6" style="stroke: #000000; stroke-width: 0.8"/>
      </g>
     </g>
     <g id="text_22">
      <!-- 0.0 -->
      <g transform="translate(478.6975 389.7575) scale(0.16 -0.16)">
       <use xlink:href="#DejaVuSans-30"/>
       <use xlink:href="#DejaVuSans-2e" x="63.623047"/>
       <use xlink:href="#DejaVuSans-30" x="95.410156"/>
      </g>
     </g>
    </g>
    <g id="xtick_8">
     <g id="line2d_26">
      <g>
       <use xlink:href="#m4d07c3d5fd" x="559.942" y="370.6" style="stroke: #000000; stroke-width: 0.8"/>
      </g>
     </g>
     <g id="text_23">
      <!-- 0.2 -->
      <g transform="translate(547.2195 389.7575) scale(0.16 -0.16)">
       <use xlink:href="#DejaVuSans-30"/>
       <use xlink:href="#DejaVuSans-2e" x="63.623047"/>
       <use xlink:href="#DejaVuSans-32" x="95.410156"/>
      </g>
     </g>
    </g>
    <g id="xtick_9">
     <g id="line2d_27">
      <g>
       <use xlink:href="#m4d07c3d5fd" x="628.464" y="370.6" style="stroke: #000000; stroke-width: 0.8"/>
      </g>
     </g>
     <g id="text_24">
      <!-- 0.4 -->
      <g transform="translate(615.7415 389.7575) scale(0.16 -0.16)">
       <use xlink:href="#DejaVuSans-30"/>
       <use xlink:href="#DejaVuSans-2e" x="63.623047"/>
       <use xlink:href="#DejaVuSans-34" x="95.410156"/>
      </g>
     </g>
    </g>
    <g id="xtick_10">
     <g id="line2d_28">
      <g>
       <use xlink:href="#m4d07c3d5fd" x="696.986" y="370.6" style="stroke: #000000; stroke-width: 0.8"/>
      </g>
     </g>
     <g id="text_25">
      <!-- 0.6 -->
      <g transform="translate(684.2635 389.7575) scale(0.16 -0.16)">
       <use xlink:href="#DejaVuSans-30"/>
       <use xlink:href="#DejaVuSans-2e" x="63.623047"/>
       <use xlink:href="#DejaVuSans-36" x="95.410156"/>
      </g>
     </g>
    </g>
    <g id="xtick_11">
     <g id="line2d_29">
      <g>
       <use xlink:href="#m4d07c3d5fd" x="765.508" y="370.6" style="stroke: #000000; stroke-width: 0.8"/>
      </g>
     </g>
     <g id="text_26">
      <!-- 0.8 -->
      <g transform="translate(752.7855 389.7575) scale(0.16 -0.16)">
       <use xlink:href="#DejaVuSans-30"/>
       <use xlink:href="#DejaVuSans-2e" x="63.623047"/>
       <use xlink:href="#DejaVuSans-38" x="95.410156"/>
      </g>
     </g>
    </g>
    <g id="xtick_12">
     <g id="line2d_30">
      <g>
       <use xlink:href="#m4d07c3d5fd" x="834.03" y="370.6" style="stroke: #000000; stroke-width: 0.8"/>
      </g>
     </g>
     <g id="text_27">
      <!-- 1.0 -->
      <g transform="translate(821.3075 389.7575) scale(0.16 -0.16)">
       <use xlink:href="#DejaVuSans-31"/>
       <use xlink:href="#DejaVuSans-2e" x="63.623047"/>
       <use xlink:href="#DejaVuSans-30" x="95.410156"/>
      </g>
     </g>
    </g>
    <g id="text_28">
     <!-- Normalized Frequency -->
     <g transform="translate(573.48625 409.2425) scale(0.16 -0.16)">
      <defs>
       <path id="DejaVuSans-4e" d="M 628 4666 
L 1478 4666 
L 3547 763 
L 3547 4666 
L 4159 4666 
L 4159 0 
L 3309 0 
L 1241 3903 
L 1241 0 
L 628 0 
L 628 4666 
z
" transform="scale(0.015625)"/>
       <path id="DejaVuSans-7a" d="M 353 3500 
L 3084 3500 
L 3084 2975 
L 922 459 
L 3084 459 
L 3084 0 
L 275 0 
L 275 525 
L 2438 3041 
L 353 3041 
L 353 3500 
z
" transform="scale(0.015625)"/>
       <path id="DejaVuSans-71" d="M 947 1747 
Q 947 1113 1208 752 
Q 1469 391 1925 391 
Q 2381 391 2643 752 
Q 2906 1113 2906 1747 
Q 2906 2381 2643 2742 
Q 2381 3103 1925 3103 
Q 1469 3103 1208 2742 
Q 947 2381 947 1747 
z
M 2906 525 
Q 2725 213 2448 61 
Q 2172 -91 1784 -91 
Q 1150 -91 751 415 
Q 353 922 353 1747 
Q 353 2572 751 3078 
Q 1150 3584 1784 3584 
Q 2172 3584 2448 3432 
Q 2725 3281 2906 2969 
L 2906 3500 
L 3481 3500 
L 3481 -1331 
L 2906 -1331 
L 2906 525 
z
" transform="scale(0.015625)"/>
       <path id="DejaVuSans-79" d="M 2059 -325 
Q 1816 -950 1584 -1140 
Q 1353 -1331 966 -1331 
L 506 -1331 
L 506 -850 
L 844 -850 
Q 1081 -850 1212 -737 
Q 1344 -625 1503 -206 
L 1606 56 
L 191 3500 
L 800 3500 
L 1894 763 
L 2988 3500 
L 3597 3500 
L 2059 -325 
z
" transform="scale(0.015625)"/>
      </defs>
      <use xlink:href="#DejaVuSans-4e"/>
      <use xlink:href="#DejaVuSans-6f" x="74.804688"/>
      <use xlink:href="#DejaVuSans-72" x="135.986328"/>
      <use xlink:href="#DejaVuSans-6d" x="175.349609"/>
      <use xlink:href="#DejaVuSans-61" x="272.761719"/>
      <use xlink:href="#DejaVuSans-6c" x="334.041016"/>
      <use xlink:href="#DejaVuSans-69" x="361.824219"/>
      <use xlink:href="#DejaVuSans-7a" x="389.607422"/>
      <use xlink:href="#DejaVuSans-65" x="442.097656"/>
      <use xlink:href="#DejaVuSans-64" x="503.621094"/>
      <use xlink:href="#DejaVuSans-20" x="567.097656"/>
      <use xlink:href="#DejaVuSans-46" x="598.884766"/>
      <use xlink:href="#DejaVuSans-72" x="649.154297"/>
      <use xlink:href="#DejaVuSans-65" x="688.017578"/>
      <use xlink:href="#DejaVuSans-71" x="749.541016"/>
      <use xlink:href="#DejaVuSans-75" x="813.017578"/>
      <use xlink:href="#DejaVuSans-65" x="876.396484"/>
      <use xlink:href="#DejaVuSans-6e" x="937.919922"/>
      <use xlink:href="#DejaVuSans-63" x="1001.298828"/>
      <use xlink:href="#DejaVuSans-79" x="1056.279297"/>
     </g>
    </g>
   </g>
   <g id="matplotlib.axis_4">
    <g id="ytick_7">
     <g id="line2d_31">
      <g>
       <use xlink:href="#md78fd29356" x="491.42" y="337.9025" style="stroke: #000000; stroke-width: 0.8"/>
      </g>
     </g>
     <g id="text_29">
      <!-- −40 -->
      <g transform="translate(450.6525 343.98125) scale(0.16 -0.16)">
       <defs>
        <path id="DejaVuSans-2212" d="M 678 2272 
L 4684 2272 
L 4684 1741 
L 678 1741 
L 678 2272 
z
" transform="scale(0.015625)"/>
       </defs>
       <use xlink:href="#DejaVuSans-2212"/>
       <use xlink:href="#DejaVuSans-34" x="83.789062"/>
       <use xlink:href="#DejaVuSans-30" x="147.412109"/>
      </g>
     </g>
    </g>
    <g id="ytick_8">
     <g id="line2d_32">
      <g>
       <use xlink:href="#md78fd29356" x="491.42" y="278.4525" style="stroke: #000000; stroke-width: 0.8"/>
      </g>
     </g>
     <g id="text_30">
      <!-- −20 -->
      <g transform="translate(450.6525 284.53125) scale(0.16 -0.16)">
       <use xlink:href="#DejaVuSans-2212"/>
       <use xlink:href="#DejaVuSans-32" x="83.789062"/>
       <use xlink:href="#DejaVuSans-30" x="147.412109"/>
      </g>
     </g>
    </g>
    <g id="ytick_9">
     <g id="line2d_33">
      <g>
       <use xlink:href="#md78fd29356" x="491.42" y="219.0025" style="stroke: #000000; stroke-width: 0.8"/>
      </g>
     </g>
     <g id="text_31">
      <!-- 0 -->
      <g transform="translate(474.24 225.08125) scale(0.16 -0.16)">
       <use xlink:href="#DejaVuSans-30"/>
      </g>
     </g>
    </g>
    <g id="ytick_10">
     <g id="line2d_34">
      <g>
       <use xlink:href="#md78fd29356" x="491.42" y="159.5525" style="stroke: #000000; stroke-width: 0.8"/>
      </g>
     </g>
     <g id="text_32">
      <!-- 20 -->
      <g transform="translate(464.06 165.63125) scale(0.16 -0.16)">
       <use xlink:href="#DejaVuSans-32"/>
       <use xlink:href="#DejaVuSans-30" x="63.623047"/>
      </g>
     </g>
    </g>
    <g id="ytick_11">
     <g id="line2d_35">
      <g>
       <use xlink:href="#md78fd29356" x="491.42" y="100.1025" style="stroke: #000000; stroke-width: 0.8"/>
      </g>
     </g>
     <g id="text_33">
      <!-- 40 -->
      <g transform="translate(464.06 106.18125) scale(0.16 -0.16)">
       <use xlink:href="#DejaVuSans-34"/>
       <use xlink:href="#DejaVuSans-30" x="63.623047"/>
      </g>
     </g>
    </g>
    <g id="ytick_12">
     <g id="line2d_36">
      <g>
       <use xlink:href="#md78fd29356" x="491.42" y="40.6525" style="stroke: #000000; stroke-width: 0.8"/>
      </g>
     </g>
     <g id="text_34">
      <!-- 60 -->
      <g transform="translate(464.06 46.73125) scale(0.16 -0.16)">
       <use xlink:href="#DejaVuSans-36"/>
       <use xlink:href="#DejaVuSans-30" x="63.623047"/>
      </g>
     </g>
    </g>
    <g id="text_35">
     <!-- Magnitude (dB) -->
     <g transform="translate(443.325 265.87625) rotate(-90) scale(0.16 -0.16)">
      <defs>
       <path id="DejaVuSans-4d" d="M 628 4666 
L 1569 4666 
L 2759 1491 
L 3956 4666 
L 4897 4666 
L 4897 0 
L 4281 0 
L 4281 4097 
L 3078 897 
L 2444 897 
L 1241 4097 
L 1241 0 
L 628 0 
L 628 4666 
z
" transform="scale(0.015625)"/>
       <path id="DejaVuSans-28" d="M 1984 4856 
Q 1566 4138 1362 3434 
Q 1159 2731 1159 2009 
Q 1159 1288 1364 580 
Q 1569 -128 1984 -844 
L 1484 -844 
Q 1016 -109 783 600 
Q 550 1309 550 2009 
Q 550 2706 781 3412 
Q 1013 4119 1484 4856 
L 1984 4856 
z
" transform="scale(0.015625)"/>
       <path id="DejaVuSans-29" d="M 513 4856 
L 1013 4856 
Q 1481 4119 1714 3412 
Q 1947 2706 1947 2009 
Q 1947 1309 1714 600 
Q 1481 -109 1013 -844 
L 513 -844 
Q 928 -128 1133 580 
Q 1338 1288 1338 2009 
Q 1338 2731 1133 3434 
Q 928 4138 513 4856 
z
" transform="scale(0.015625)"/>
      </defs>
      <use xlink:href="#DejaVuSans-4d"/>
      <use xlink:href="#DejaVuSans-61" x="86.279297"/>
      <use xlink:href="#DejaVuSans-67" x="147.558594"/>
      <use xlink:href="#DejaVuSans-6e" x="211.035156"/>
      <use xlink:href="#DejaVuSans-69" x="274.414062"/>
      <use xlink:href="#DejaVuSans-74" x="302.197266"/>
      <use xlink:href="#DejaVuSans-75" x="341.40625"/>
      <use xlink:href="#DejaVuSans-64" x="404.785156"/>
      <use xlink:href="#DejaVuSans-65" x="468.261719"/>
      <use xlink:href="#DejaVuSans-20" x="529.785156"/>
      <use xlink:href="#DejaVuSans-28" x="561.572266"/>
      <use xlink:href="#DejaVuSans-64" x="600.585938"/>
      <use xlink:href="#DejaVuSans-42" x="664.0625"/>
      <use xlink:href="#DejaVuSans-29" x="732.666016"/>
     </g>
    </g>
   </g>
   <g id="line2d_37">
    <path d="M 491.42 117.487453 
L 493.572682 117.59797 
L 495.725364 117.930666 
L 497.878046 118.489027 
L 500.030728 119.279064 
L 502.183411 120.309626 
L 504.336093 121.592897 
L 506.488775 123.145144 
L 508.641457 124.987803 
L 510.659596 127.004039 
L 512.677736 129.330823 
L 514.695875 132.008585 
L 516.579472 134.872348 
L 518.463069 138.149921 
L 520.212123 141.637734 
L 521.961178 145.653029 
L 523.575689 149.952129 
L 525.055658 154.54493 
L 526.401084 159.444927 
L 527.611968 164.667733 
L 528.688309 170.227464 
L 529.630108 176.128737 
L 530.571906 183.530363 
L 531.379162 191.869138 
L 532.051875 201.408248 
L 532.590046 212.486611 
L 532.993673 225.413413 
L 533.262759 239.782033 
L 533.397301 251.665629 
L 533.666387 299.291329 
L 533.935472 244.862534 
L 534.3391 223.399205 
L 534.87727 209.173912 
L 535.549983 198.487623 
L 536.222697 191.19661 
L 537.029952 184.775504 
L 537.971751 179.165006 
L 538.913549 174.831153 
L 539.98989 170.924723 
L 541.066231 167.813567 
L 542.277115 165.015647 
L 543.487999 162.79044 
L 544.698882 161.021872 
L 545.909766 159.631309 
L 547.12065 158.563597 
L 548.331533 157.779152 
L 549.542417 157.249236 
L 550.753301 156.953008 
L 551.964185 156.875651 
L 553.175068 157.007158 
L 554.520495 157.391116 
L 555.865921 158.022703 
L 557.211347 158.904196 
L 558.556774 160.043259 
L 560.036743 161.610234 
L 561.516711 163.533911 
L 562.99668 165.856556 
L 564.476649 168.640079 
L 565.822076 171.646764 
L 567.167502 175.21188 
L 568.378386 179.025645 
L 569.589269 183.596715 
L 570.66561 188.531634 
L 571.607409 193.810782 
L 572.549207 200.441245 
L 573.356463 207.853605 
L 574.029176 216.155186 
L 574.567347 225.39478 
L 574.970975 235.35845 
L 575.374603 251.621005 
L 575.643688 274.068882 
L 575.778231 304.28017 
L 575.912773 299.242325 
L 576.181858 259.686288 
L 576.585486 239.734027 
L 577.123657 225.906999 
L 577.79637 215.287934 
L 578.469083 207.933965 
L 579.276339 201.377146 
L 580.218137 195.575437 
L 581.294478 190.46534 
L 582.370819 186.433693 
L 583.581703 182.802368 
L 584.792587 179.880698 
L 586.003471 177.50785 
L 587.214354 175.578502 
L 588.425238 174.020452 
L 589.636122 172.782593 
L 590.847005 171.828001 
L 592.057889 171.129749 
L 593.268773 170.668283 
L 594.479656 170.429737 
L 595.69054 170.404849 
L 596.901424 170.588293 
L 598.112307 170.978304 
L 599.457734 171.656081 
L 600.80316 172.598501 
L 602.148586 173.819077 
L 603.494013 175.338571 
L 604.839439 177.187029 
L 606.184865 179.407093 
L 607.530292 182.059482 
L 608.875718 185.232378 
L 610.086602 188.64127 
L 611.297485 192.726793 
L 612.373827 197.116021 
L 613.450168 202.506495 
L 614.391966 208.433669 
L 615.199222 214.91587 
L 615.871935 221.927349 
L 616.544648 231.552328 
L 617.082819 243.068012 
L 617.486447 257.111959 
L 617.755532 273.988619 
L 617.890074 289.897701 
L 618.024617 338.905631 
L 618.293702 278.664649 
L 618.69733 253.639539 
L 619.235501 238.17839 
L 619.773671 228.670386 
L 620.446384 220.369463 
L 621.25364 213.145285 
L 622.195439 206.844504 
L 623.137237 201.952627 
L 624.213578 197.498594 
L 625.424462 193.49782 
L 626.635346 190.274616 
L 627.846229 187.643926 
L 629.191656 185.272355 
L 630.537082 183.3771 
L 631.882508 181.884402 
L 633.227935 180.742949 
L 634.438818 179.985853 
L 635.649702 179.465139 
L 636.860586 179.167589 
L 638.071469 179.084479 
L 639.282353 179.210949 
L 640.493237 179.545676 
L 641.838663 180.164545 
L 643.184089 181.05135 
L 644.529516 182.220385 
L 645.874942 183.693404 
L 647.220368 185.501784 
L 648.565795 187.690052 
L 649.911221 190.321744 
L 651.256647 193.489489 
L 652.467531 196.913138 
L 653.678415 201.041637 
L 654.754756 205.507073 
L 655.696554 210.270894 
L 656.638353 216.202026 
L 657.445608 222.716697 
L 658.118322 229.798327 
L 658.791035 239.588933 
L 659.329205 251.442147 
L 659.732833 266.214045 
L 660.001918 284.802682 
L 660.136461 304.084278 
L 660.271004 361.40128 
L 660.540089 282.350353 
L 660.943717 259.496658 
L 661.481887 244.646994 
L 662.1546 233.488869 
L 662.827314 225.822738 
L 663.634569 219.0025 
L 664.576368 212.962486 
L 665.652709 207.624963 
L 666.72905 203.39223 
L 667.939934 199.553726 
L 669.150817 196.438305 
L 670.361701 193.88134 
L 671.707127 191.565678 
L 673.052554 189.708056 
L 674.39798 188.24066 
L 675.743406 187.116108 
L 677.088833 186.301021 
L 678.299716 185.812655 
L 679.5106 185.544524 
L 680.721484 185.489349 
L 681.932367 185.643566 
L 683.143251 186.007088 
L 684.488677 186.660718 
L 685.834104 187.587037 
L 687.17953 188.802584 
L 688.524956 190.331955 
L 689.870383 192.210338 
L 691.215809 194.48767 
L 692.561235 197.235594 
L 693.772119 200.1973 
L 694.983003 203.739883 
L 696.193886 208.040858 
L 697.270228 212.73394 
L 698.212026 217.79637 
L 699.153824 224.19818 
L 699.96108 231.392138 
L 700.633793 239.472656 
L 701.171964 248.467932 
L 701.575592 258.13565 
L 701.97922 273.731085 
L 702.248305 294.452645 
L 702.51739 332.550738 
L 702.786475 284.78526 
L 703.190103 263.740288 
L 703.728274 249.461456 
L 704.400987 238.553334 
L 705.0737 230.997187 
L 705.880956 224.241418 
L 706.822754 218.235662 
L 707.899096 212.911655 
L 708.975437 208.678308 
L 710.18632 204.829797 
L 711.397204 201.698563 
L 712.74263 198.865234 
L 714.088057 196.574872 
L 715.433483 194.73294 
L 716.778909 193.274711 
L 718.124336 192.154866 
L 719.469762 191.341483 
L 720.680646 190.852991 
L 721.891529 190.583822 
L 723.102413 190.527243 
L 724.313297 190.680184 
L 725.52418 191.043038 
L 726.735064 191.619685 
L 728.08049 192.520564 
L 729.425917 193.711632 
L 730.771343 195.217727 
L 732.116769 197.074371 
L 733.462196 199.331979 
L 734.807622 202.062923 
L 736.018506 205.01265 
L 737.229389 208.547857 
L 738.30573 212.325102 
L 739.382071 216.907302 
L 740.32387 221.839382 
L 741.265668 228.05214 
L 742.072924 234.987928 
L 742.745637 242.698114 
L 743.283808 251.142746 
L 743.821978 263.775183 
L 744.225606 280.302268 
L 744.494692 303.756454 
L 744.629234 338.462439 
L 745.301947 271.984213 
L 745.840118 256.026223 
L 746.378288 246.298576 
L 747.051002 237.827503 
L 747.858257 230.455927 
L 748.800056 224.01616 
L 749.741854 219.0025 
L 750.818195 214.420776 
L 752.029079 210.285199 
L 753.239963 206.933339 
L 754.450846 204.178384 
L 755.796273 201.672689 
L 757.141699 199.646672 
L 758.487125 198.026046 
L 759.832552 196.759135 
L 761.177978 195.809545 
L 762.523404 195.1518 
L 763.734288 194.794977 
L 764.945172 194.652584 
L 766.156055 194.720471 
L 767.366939 194.997989 
L 768.577823 195.487941 
L 769.923249 196.289459 
L 771.268675 197.376117 
L 772.614102 198.770334 
L 773.959528 200.504386 
L 775.304954 202.624074 
L 776.650381 205.194844 
L 777.861264 207.972378 
L 779.072148 211.295169 
L 780.283032 215.319964 
L 781.359373 219.688746 
L 782.301171 224.361628 
L 783.24297 230.190535 
L 784.050225 236.599588 
L 784.722939 243.56586 
L 785.395652 253.179631 
L 785.933822 264.758034 
L 786.33745 279.011679 
L 786.606535 296.432869 
L 786.741078 313.382407 
L 786.875621 381.065025 
L 787.144706 298.50272 
L 787.548334 274.262365 
L 788.086504 258.97201 
L 788.759218 247.58758 
L 789.431931 239.79036 
L 790.239187 232.858312 
L 791.180985 226.715568 
L 792.257326 221.278321 
L 793.333667 216.955986 
L 794.544551 213.023791 
L 795.755434 209.819536 
L 797.100861 206.913081 
L 798.446287 204.55527 
L 799.791713 202.649855 
L 801.13714 201.131025 
L 802.482566 199.952734 
L 803.827992 199.08254 
L 805.173419 198.497897 
L 806.384302 198.203404 
L 807.595186 198.121541 
L 808.80607 198.249449 
L 810.016953 198.587727 
L 811.227837 199.140469 
L 812.573263 200.015865 
L 813.91869 201.182965 
L 815.264116 202.66711 
L 816.609542 204.504505 
L 817.954969 206.746549 
L 819.300395 209.467106 
L 820.511279 212.413876 
L 821.722162 215.955198 
L 822.798504 219.749638 
L 823.874845 224.367095 
L 824.816643 229.355382 
L 825.758441 235.668676 
L 826.565697 242.762802 
L 827.23841 250.720812 
L 827.776581 259.552426 
L 828.180209 268.990529 
L 828.583837 284.017962 
L 828.852922 303.294655 
L 829.122007 360.609342 
L 829.391093 298.254265 
L 829.79472 276.056153 
L 830.332891 261.37938 
L 831.005604 250.266609 
L 831.678317 242.595052 
L 832.485573 235.744168 
L 833.427372 229.654056 
L 834.100085 226.124269 
L 834.100085 226.124269 
" clip-path="url(#p995cec9d1b)" style="fill: none; stroke: #1f77b4; stroke-width: 1.5; stroke-linecap: square"/>
   </g>
   <g id="line2d_38">
    <path d="M 491.42 135.393615 
L 494.514481 135.507667 
L 497.608961 135.850431 
L 500.703442 136.423753 
L 503.797922 137.230758 
L 506.892403 138.275936 
L 509.986883 139.565264 
L 513.081364 141.106378 
L 516.041302 142.824845 
L 519.00124 144.792568 
L 521.961178 147.02189 
L 524.921115 149.527715 
L 527.881053 152.328056 
L 530.840991 155.444765 
L 533.666387 158.739373 
L 536.491782 162.374912 
L 539.317177 166.386393 
L 542.00803 170.596227 
L 544.698882 175.234144 
L 547.255192 180.091703 
L 549.67696 185.160939 
L 552.098727 190.760378 
L 554.385952 196.624161 
L 556.538634 202.7556 
L 558.556774 209.159289 
L 560.44037 215.84072 
L 562.323967 223.377043 
L 564.073021 231.35981 
L 565.687533 239.841753 
L 567.167502 248.891516 
L 568.512928 258.600462 
L 569.723812 269.094759 
L 570.800153 280.558926 
L 571.741952 293.287049 
L 572.414665 305.042473 
L 573.087378 321.136613 
L 573.491006 335.260444 
L 573.760091 349.183778 
L 574.029176 374.329848 
L 574.163719 408.492796 
L 574.298262 397.490265 
L 574.567347 362.536814 
L 574.970975 346.832652 
L 575.374603 340.459665 
L 575.643688 338.679987 
L 575.778231 338.350698 
L 575.912773 338.367018 
L 576.047316 338.726303 
L 576.316401 340.534255 
L 576.585486 344.078024 
L 576.854572 350.156661 
L 577.123657 361.007925 
L 577.392742 387.258348 
L 577.400694 433 
M 577.653561 433 
L 577.661827 385.330986 
L 577.930913 355.197868 
L 578.334541 334.900449 
L 578.872711 318.894088 
L 579.545424 305.390221 
L 580.35268 293.609929 
L 581.294478 283.150257 
L 582.370819 273.773727 
L 583.581703 265.32525 
L 584.792587 258.392558 
L 586.138013 251.961495 
L 587.617982 246.036492 
L 589.097951 241.031793 
L 590.57792 236.752628 
L 592.192432 232.754126 
L 593.806943 229.333413 
L 595.421455 226.399209 
L 597.170509 223.690625 
L 598.919563 221.407061 
L 600.668617 219.498045 
L 602.417672 217.92437 
L 604.166726 216.655232 
L 605.91578 215.666267 
L 607.664834 214.938171 
L 609.413889 214.455706 
L 611.162943 214.206987 
L 612.911997 214.182965 
L 614.661051 214.377051 
L 616.410105 214.784858 
L 618.293702 215.460395 
L 620.177299 216.380683 
L 622.060896 217.547895 
L 623.944493 218.966878 
L 625.962632 220.775438 
L 627.980772 222.895531 
L 629.998911 225.345716 
L 632.017051 228.15058 
L 634.03519 231.342308 
L 636.05333 234.962985 
L 638.071469 239.068059 
L 639.955066 243.40155 
L 641.838663 248.302766 
L 643.587717 253.459504 
L 645.336771 259.327832 
L 646.951283 265.532884 
L 648.431252 272.071529 
L 649.911221 279.685684 
L 651.256647 287.891326 
L 652.467531 296.789262 
L 653.543872 306.538332 
L 654.48567 317.405474 
L 655.158384 327.497446 
L 655.696554 338.156799 
L 656.234725 353.679257 
L 656.638353 374.165171 
L 656.907438 408.310347 
L 657.012434 433 
M 657.063895 433 
L 657.311066 382.51187 
L 657.714694 362.30886 
L 658.118322 352.528632 
L 658.656492 345.092728 
L 659.194663 340.887403 
L 659.59829 339.083149 
L 660.001918 338.178075 
L 660.271004 338.021253 
L 660.540089 338.208301 
L 660.809174 338.743452 
L 661.212802 340.244239 
L 661.61643 342.71531 
L 662.020058 346.443036 
L 662.423686 352.00886 
L 662.827314 360.763281 
L 663.096399 370.161385 
L 663.365484 387.039234 
L 663.500027 404.444496 
L 663.505128 433 
M 663.763848 433 
L 663.769112 403.496619 
L 664.038197 374.226457 
L 664.441825 355.045454 
L 664.979996 340.266481 
L 665.652709 327.983577 
L 666.459965 317.337649 
L 667.401763 307.880437 
L 668.478104 299.355485 
L 669.688988 291.605923 
L 671.034414 284.530727 
L 672.379841 278.604068 
L 673.85981 273.069555 
L 675.474321 267.936509 
L 677.088833 263.54895 
L 678.703344 259.767167 
L 680.452398 256.23943 
L 682.201453 253.214697 
L 683.950507 250.624939 
L 685.699561 248.418595 
L 687.448615 246.555878 
L 689.19767 245.005699 
L 690.946724 243.743587 
L 692.695778 242.750242 
L 694.444832 242.010514 
L 696.193886 241.512669 
L 697.942941 241.24787 
L 699.691995 241.209809 
L 701.441049 241.394454 
L 703.190103 241.799899 
L 704.939158 242.426293 
L 706.688212 243.275851 
L 708.571809 244.445394 
L 710.455406 245.887348 
L 712.339002 247.613754 
L 714.222599 249.640829 
L 716.106196 251.989867 
L 717.989793 254.688556 
L 719.87339 257.772894 
L 721.756987 261.290054 
L 723.640583 265.302784 
L 725.389638 269.546765 
L 727.138692 274.385785 
L 728.753204 279.495769 
L 730.367715 285.380513 
L 731.847684 291.654451 
L 733.19311 298.335229 
L 734.403994 305.448946 
L 735.480335 313.031464 
L 736.422134 321.128394 
L 737.229389 329.789847 
L 737.902103 339.048515 
L 738.440273 348.849511 
L 738.978444 363.07001 
L 739.382071 381.343502 
L 739.651157 408.005112 
L 739.715358 433 
M 739.870105 433 
L 740.054785 396.958446 
L 740.458413 373.178129 
L 740.86204 361.927205 
L 741.400211 352.966291 
L 741.938381 347.245317 
L 742.611095 342.58728 
L 743.149265 340.164799 
L 743.687436 338.599655 
L 744.225606 337.747321 
L 744.629234 337.529704 
L 744.898319 337.577385 
L 745.301947 337.937785 
L 745.705575 338.65588 
L 746.243746 340.218624 
L 746.781916 342.587619 
L 747.320087 345.98542 
L 747.858257 350.83031 
L 748.396428 357.996213 
L 748.800056 366.135814 
L 749.203684 379.570961 
L 749.472769 396.820398 
L 749.607312 414.401443 
L 749.610956 433 
M 749.872635 433 
L 749.876397 413.786802 
L 750.145482 384.82744 
L 750.54911 366.075158 
L 751.08728 351.80708 
L 751.759994 340.081168 
L 752.567249 330.006543 
L 753.509048 321.10989 
L 754.585389 313.116977 
L 755.796273 305.859741 
L 757.141699 299.231298 
L 758.487125 293.670957 
L 759.967094 288.468362 
L 761.581606 283.632286 
L 763.196117 279.489475 
L 764.945172 275.636382 
L 766.694226 272.333623 
L 768.44328 269.499703 
L 770.192334 267.074384 
L 771.941389 265.012091 
L 773.690443 263.277767 
L 775.439497 261.844161 
L 777.188551 260.69 
L 778.937605 259.798727 
L 780.68666 259.157615 
L 782.435714 258.75715 
L 784.184768 258.59059 
L 785.933822 258.653687 
L 787.682877 258.944506 
L 789.431931 259.463357 
L 791.180985 260.212811 
L 792.930039 261.197819 
L 794.679093 262.42593 
L 796.56269 264.032503 
L 798.446287 265.950901 
L 800.329884 268.204553 
L 802.213481 270.824291 
L 804.097078 273.850789 
L 805.846132 277.072472 
L 807.595186 280.749767 
L 809.34424 284.962115 
L 810.958752 289.421351 
L 812.573263 294.558447 
L 814.053232 300.024501 
L 815.398659 305.818259 
L 816.609542 311.939181 
L 817.820426 319.275153 
L 818.896767 327.327566 
L 819.838566 336.292324 
L 820.645821 346.494234 
L 821.183992 355.704894 
L 821.722162 368.973772 
L 822.12579 385.564376 
L 822.394876 407.575328 
L 822.519889 433 
M 822.692144 433 
L 822.933046 396.489467 
L 823.336674 376.733897 
L 823.874845 363.688608 
L 824.413015 355.786214 
L 825.085728 349.223799 
L 825.758441 344.740054 
L 826.431155 341.582141 
L 827.103868 339.376381 
L 827.776581 337.91757 
L 828.314751 337.208208 
L 828.852922 336.867904 
L 829.25655 336.844157 
L 829.660178 337.016383 
L 830.198348 337.555825 
L 830.736519 338.467284 
L 831.274689 339.786532 
L 831.947403 342.101168 
L 832.620116 345.33981 
L 833.292829 349.85154 
L 833.830999 354.820976 
L 834.100085 357.973952 
L 834.100085 357.973952 
" clip-path="url(#p995cec9d1b)" style="fill: none; stroke: #ff7f0e; stroke-width: 1.5; stroke-linecap: square"/>
   </g>
   <g id="line2d_39">
    <path d="M 491.42 135.383686 
L 494.918108 135.498103 
L 498.416217 135.841957 
L 501.914325 136.417079 
L 505.277891 137.191064 
L 508.641457 138.185704 
L 512.005023 139.406256 
L 515.368589 140.859427 
L 518.732154 142.553601 
L 522.09572 144.499129 
L 525.459286 146.708729 
L 528.688309 149.092856 
L 531.917332 151.751704 
L 535.146356 154.706188 
L 538.240836 157.839018 
L 541.335317 161.296009 
L 544.295255 164.939653 
L 547.12065 168.763282 
L 549.946045 172.971853 
L 552.636898 177.394663 
L 555.193208 182.038434 
L 557.614975 186.915173 
L 559.9022 192.043904 
L 561.920339 197.095823 
L 563.803936 202.37753 
L 565.55299 207.917729 
L 567.167502 213.756868 
L 568.647471 219.951839 
L 569.992897 226.583371 
L 571.203781 233.768296 
L 572.145579 240.585195 
L 573.087378 249.160506 
L 573.760091 257.10951 
L 574.432804 267.926495 
L 574.970975 280.969827 
L 575.374603 297.566595 
L 575.643688 320.235791 
L 575.778231 350.557297 
L 575.912773 345.629378 
L 576.181858 306.292325 
L 576.585486 286.666393 
L 577.123657 273.270534 
L 577.79637 263.184248 
L 578.469083 256.356369 
L 579.276339 250.422291 
L 580.083595 245.973153 
L 581.025393 241.989046 
L 581.967192 238.899857 
L 583.043533 236.152247 
L 584.119874 234.028508 
L 585.196215 232.387537 
L 586.272556 231.135241 
L 587.348897 230.206083 
L 588.425238 229.552927 
L 589.501579 229.141086 
L 590.57792 228.944642 
L 591.788804 228.95703 
L 592.999687 229.196981 
L 594.345114 229.712976 
L 595.69054 230.478997 
L 597.170509 231.602182 
L 598.650478 233.017716 
L 600.130447 234.731482 
L 601.744959 236.957971 
L 603.35947 239.587787 
L 604.973982 242.670273 
L 606.453951 245.956867 
L 607.93392 249.772483 
L 609.413889 254.247723 
L 610.759315 259.061081 
L 611.970199 264.21488 
L 613.04654 269.711435 
L 613.988338 275.544149 
L 614.930137 282.842102 
L 615.737392 291.021384 
L 616.410105 300.29467 
L 616.948276 310.902963 
L 617.351904 322.958144 
L 617.620989 335.738881 
L 617.890074 361.558513 
L 618.024617 410.628542 
L 618.293702 350.511515 
L 618.69733 325.671728 
L 619.235501 310.45655 
L 619.773671 301.193245 
L 620.446384 293.196427 
L 621.25364 286.334616 
L 622.060896 281.192392 
L 623.002694 276.550946 
L 624.079036 272.439045 
L 625.155377 269.21418 
L 626.231718 266.640677 
L 627.442601 264.342761 
L 628.653485 262.54721 
L 629.864369 261.162683 
L 631.075252 260.125754 
L 632.286136 259.391149 
L 633.49702 258.926012 
L 634.707903 258.706392 
L 635.918787 258.715008 
L 637.129671 258.939815 
L 638.475097 259.43389 
L 639.820524 260.180252 
L 641.16595 261.179045 
L 642.645919 262.575952 
L 644.125888 264.300383 
L 645.605857 266.377768 
L 647.085826 268.846567 
L 648.565795 271.763342 
L 650.045764 275.211602 
L 651.39119 278.912822 
L 652.736616 283.303554 
L 653.9475 288.0368 
L 655.023841 293.101247 
L 656.100182 299.334442 
L 657.04198 306.262271 
L 657.849236 314.010725 
L 658.521949 322.72742 
L 659.06012 332.531726 
L 659.463748 343.318459 
L 659.867376 361.829981 
L 660.136461 392.126991 
L 660.23233 433 
M 660.306605 433 
L 660.540089 370.525986 
L 660.943717 347.804859 
L 661.481887 333.13141 
L 662.1546 322.192684 
L 662.827314 314.744999 
L 663.634569 308.185646 
L 664.576368 302.448297 
L 665.518166 298.009634 
L 666.594507 294.001893 
L 667.670848 290.804529 
L 668.881732 287.924393 
L 670.092616 285.630397 
L 671.303499 283.804911 
L 672.514383 282.368163 
L 673.725267 281.264097 
L 674.936151 280.452386 
L 676.147034 279.903653 
L 677.357918 279.596496 
L 678.568802 279.515592 
L 679.779685 279.650473 
L 680.990569 279.994758 
L 682.335995 280.619674 
L 683.681422 281.501051 
L 685.026848 282.645502 
L 686.372274 284.065569 
L 687.852243 285.969594 
L 689.332212 288.269713 
L 690.812181 291.022931 
L 692.157608 293.989197 
L 693.503034 297.492705 
L 694.84846 301.675329 
L 696.059344 306.205391 
L 697.135685 311.066592 
L 698.212026 317.056822 
L 699.153824 323.707294 
L 699.96108 331.113449 
L 700.633793 339.370139 
L 701.171964 348.505927 
L 701.575592 358.27878 
L 701.97922 373.979139 
L 702.248305 394.770531 
L 702.51739 432.938363 
L 702.786475 385.242532 
L 703.190103 364.301855 
L 703.728274 350.16176 
L 704.400987 339.426544 
L 705.0737 332.042734 
L 705.880956 325.493022 
L 706.822754 319.726646 
L 707.764553 315.238203 
L 708.840894 311.160551 
L 709.917235 307.885694 
L 711.128119 304.91342 
L 712.339002 302.524445 
L 713.549886 300.602569 
L 714.76077 299.068879 
L 715.971653 297.867867 
L 717.182537 296.95957 
L 718.393421 296.314861 
L 719.604305 295.912522 
L 720.815188 295.737367 
L 722.026072 295.779036 
L 723.236956 296.031237 
L 724.582382 296.555265 
L 725.927808 297.33736 
L 727.273235 298.38426 
L 728.618661 299.708649 
L 729.964087 301.330289 
L 731.309514 303.277932 
L 732.65494 305.592451 
L 734.000366 308.331996 
L 735.345793 311.58078 
L 736.691219 315.464876 
L 737.902103 319.665473 
L 738.978444 324.152668 
L 740.054785 329.633634 
L 740.996583 335.628293 
L 741.803839 342.150748 
L 742.476552 349.1694 
L 743.149265 358.743255 
L 743.687436 370.094914 
L 744.091064 383.74165 
L 744.360149 399.703385 
L 744.568164 433 
M 744.764665 433 
L 745.032862 396.873008 
L 745.43649 377.446933 
L 745.97466 363.814217 
L 746.647374 353.293736 
L 747.320087 345.993268 
L 748.127343 339.479142 
L 749.069141 333.714911 
L 750.010939 329.207941 
L 751.08728 325.095818 
L 752.163622 321.778465 
L 753.374505 318.752817 
L 754.585389 316.306959 
L 755.796273 314.326118 
L 757.007156 312.732243 
L 758.21804 311.470385 
L 759.428924 310.500956 
L 760.639807 309.795097 
L 761.850691 309.331785 
L 763.061575 309.095984 
L 764.272458 309.077457 
L 765.483342 309.270019 
L 766.694226 309.671105 
L 768.039652 310.362518 
L 769.385078 311.318866 
L 770.730505 312.552358 
L 772.075931 314.082177 
L 773.421357 315.936323 
L 774.766784 318.154633 
L 776.11221 320.793753 
L 777.457636 323.935576 
L 778.803063 327.702346 
L 780.013946 331.782928 
L 781.090288 336.144319 
L 782.166629 341.468107 
L 783.108427 347.277776 
L 783.915683 353.572007 
L 784.588396 360.298209 
L 785.261109 369.359322 
L 785.79928 379.853623 
L 786.202908 391.929516 
L 786.471993 404.918803 
L 786.742929 433 
M 787.032891 433 
L 787.279249 406.483983 
L 787.682877 388.362357 
L 788.221047 375.207367 
L 788.89376 364.902821 
L 789.701016 356.48327 
L 790.508272 350.310399 
L 791.45007 344.775681 
L 792.526411 339.855046 
L 793.602752 335.948434 
L 794.813636 332.41523 
L 796.02452 329.565358 
L 797.235403 327.248483 
L 798.446287 325.365334 
L 799.657171 323.847439 
L 800.868054 322.646125 
L 802.078938 321.726125 
L 803.289822 321.061693 
L 804.500706 320.634154 
L 805.711589 320.430321 
L 806.922473 320.441496 
L 808.133357 320.662838 
L 809.34424 321.093042 
L 810.689667 321.81873 
L 812.035093 322.813158 
L 813.380519 324.090661 
L 814.725946 325.673052 
L 816.071372 327.591794 
L 817.416798 329.891546 
L 818.762225 332.636051 
L 820.107651 335.918274 
L 821.318535 339.446852 
L 822.529418 343.682859 
L 823.605759 348.247174 
L 824.6821 353.87984 
L 825.623899 360.121018 
L 826.431155 367.025312 
L 827.103868 374.621384 
L 827.642038 382.835737 
L 828.180209 394.870122 
L 828.583837 409.963469 
L 828.876846 433 
M 829.316594 433 
L 829.525635 414.676505 
L 829.929263 397.690754 
L 830.467434 384.984129 
L 831.140147 374.892448 
L 831.947403 366.581799 
L 832.754658 360.458507 
L 833.696457 354.94859 
L 834.100085 352.963436 
L 834.100085 352.963436 
" clip-path="url(#p995cec9d1b)" style="fill: none; stroke: #2ca02c; stroke-width: 1.5; stroke-linecap: square"/>
   </g>
   <g id="line2d_40">
    <path d="M 491.42 133.396644 
L 494.514481 133.506758 
L 497.608961 133.837568 
L 500.703442 134.390486 
L 503.797922 135.1679 
L 506.892403 136.173225 
L 509.986883 137.410982 
L 513.081364 138.886903 
L 516.175844 140.608071 
L 519.270325 142.583109 
L 522.364805 144.822418 
L 525.459286 147.338496 
L 528.553767 150.146349 
L 531.648247 153.264048 
L 534.608185 156.556254 
L 537.568123 160.175188 
L 540.528061 164.149284 
L 543.353456 168.306325 
L 546.178851 172.857363 
L 548.869704 177.602413 
L 551.560557 182.803232 
L 554.116867 188.231146 
L 556.538634 193.887094 
L 558.825859 199.776268 
L 560.978541 205.909522 
L 562.99668 212.3055 
L 564.880277 218.993888 
L 566.629332 226.020559 
L 568.243843 233.456087 
L 569.589269 240.630021 
L 570.800153 248.190578 
L 571.876494 256.234648 
L 572.818293 264.901194 
L 573.625548 274.390414 
L 574.298262 284.99027 
L 574.836432 297.100638 
L 575.24006 311.175767 
L 575.509145 327.10083 
L 575.643688 340.898279 
L 575.778231 371.332475 
L 575.912773 366.517865 
L 576.181858 327.409303 
L 576.585486 308.130871 
L 577.123657 295.207451 
L 577.661827 287.284675 
L 578.334541 280.590808 
L 579.007254 275.876245 
L 579.814509 271.796541 
L 580.621765 268.852887 
L 581.429021 266.706353 
L 582.236277 265.156925 
L 583.043533 264.077034 
L 583.850788 263.380632 
L 584.658044 263.007165 
L 585.4653 262.91257 
L 586.272556 263.063864 
L 587.079812 263.435702 
L 588.02161 264.121747 
L 589.097951 265.207337 
L 590.308835 266.774744 
L 591.654261 268.895438 
L 593.268773 271.874195 
L 595.959625 277.426249 
L 597.977765 281.381112 
L 599.188649 283.327201 
L 600.26499 284.665558 
L 601.206788 285.518453 
L 602.283129 286.175551 
L 603.494013 286.636667 
L 606.319408 287.586112 
L 607.395749 288.24456 
L 608.337548 289.079302 
L 609.279346 290.22154 
L 610.221144 291.740674 
L 611.162943 293.721872 
L 612.104741 296.280489 
L 613.04654 299.587057 
L 613.853795 303.220542 
L 614.661051 307.894846 
L 615.333764 312.957069 
L 616.006478 319.700229 
L 616.544648 327.143252 
L 617.082819 338.152778 
L 617.486447 351.826189 
L 617.755532 368.460051 
L 617.890074 384.24898 
L 618.024238 433 
M 618.025081 433 
L 618.293702 372.660383 
L 618.69733 347.286953 
L 619.235501 331.372306 
L 619.908214 319.413909 
L 620.71547 309.717353 
L 621.522726 302.556552 
L 622.464524 296.042278 
L 623.540865 290.131548 
L 624.751749 284.783333 
L 625.962632 280.405805 
L 627.308059 276.383838 
L 628.653485 273.050287 
L 629.998911 270.272673 
L 631.344338 267.961876 
L 632.689764 266.055774 
L 634.03519 264.510162 
L 635.380617 263.29342 
L 636.726043 262.383274 
L 637.936927 261.813819 
L 639.14781 261.473967 
L 640.358694 261.360806 
L 641.569578 261.474961 
L 642.780461 261.820704 
L 643.991345 262.4063 
L 645.202229 263.24466 
L 646.413113 264.354397 
L 647.623996 265.761478 
L 648.83488 267.501799 
L 650.045764 269.625282 
L 651.256647 272.202648 
L 652.467531 275.337165 
L 653.543872 278.716695 
L 654.620213 282.832922 
L 655.562012 287.258622 
L 656.50381 292.792121 
L 657.311066 298.870173 
L 657.983779 305.442947 
L 658.656492 314.403928 
L 659.194663 324.920622 
L 659.59829 337.214487 
L 659.867376 350.731999 
L 660.136461 380.888891 
L 660.258838 433 
M 660.282177 433 
L 660.540089 359.078682 
L 660.943717 336.149503 
L 661.481887 321.200417 
L 662.1546 309.919942 
L 662.827314 302.133553 
L 663.634569 295.171693 
L 664.576368 288.970055 
L 665.652709 283.452408 
L 666.72905 279.044267 
L 667.939934 275.013852 
L 669.150817 271.712031 
L 670.496244 268.699456 
L 671.84167 266.238749 
L 673.187096 264.234078 
L 674.532523 262.619815 
L 675.877949 261.34997 
L 677.223375 260.392088 
L 678.568802 259.723575 
L 679.779685 259.356804 
L 680.990569 259.205642 
L 682.201453 259.267174 
L 683.412336 259.541947 
L 684.62322 260.034013 
L 685.834104 260.751208 
L 687.17953 261.827118 
L 688.524956 263.220577 
L 689.870383 264.966635 
L 691.215809 267.115096 
L 692.426693 269.451255 
L 693.637576 272.24582 
L 694.84846 275.608558 
L 695.924801 279.208864 
L 697.001142 283.576709 
L 697.942941 288.268042 
L 698.884739 294.147198 
L 699.691995 300.648073 
L 700.364708 307.763601 
L 700.902879 315.371794 
L 701.441049 326.246073 
L 701.844677 339.149695 
L 702.113762 353.767813 
L 702.248305 366.138757 
L 702.51739 404.216191 
L 702.786475 356.430153 
L 703.190103 335.354525 
L 703.728274 321.035159 
L 704.400987 310.076909 
L 705.0737 302.471224 
L 705.880956 295.656775 
L 706.822754 289.583594 
L 707.899096 284.183865 
L 708.975437 279.876183 
L 710.18632 275.94566 
L 711.397204 272.734078 
L 712.74263 269.813366 
L 714.088057 267.437556 
L 715.433483 265.512051 
L 716.778909 263.972066 
L 718.124336 262.772229 
L 719.469762 261.880565 
L 720.815188 261.27487 
L 722.026072 260.962005 
L 723.236956 260.862484 
L 724.447839 260.973596 
L 725.658723 261.296084 
L 726.869607 261.834194 
L 728.08049 262.595969 
L 729.425917 263.719964 
L 730.771343 265.160327 
L 732.116769 266.952543 
L 733.462196 269.146991 
L 734.807622 271.816008 
L 736.018506 274.71103 
L 737.229389 278.192479 
L 738.30573 281.922719 
L 739.382071 286.45863 
L 740.32387 291.350783 
L 741.265668 297.524142 
L 742.072924 304.426572 
L 742.745637 312.109246 
L 743.283808 320.532054 
L 743.821978 333.142828 
L 744.225606 349.653772 
L 744.494692 373.097248 
L 744.629234 407.797892 
L 745.301947 341.293113 
L 745.840118 325.314056 
L 746.378288 315.565496 
L 747.051002 307.068499 
L 747.858257 299.666126 
L 748.800056 293.190852 
L 749.741854 288.142135 
L 750.818195 283.520884 
L 752.029079 279.341514 
L 753.239963 275.94656 
L 754.585389 272.869602 
L 755.930815 270.369834 
L 757.276242 268.341797 
L 758.621668 266.713902 
L 759.967094 265.436253 
L 761.312521 264.473688 
L 762.657947 263.801639 
L 763.868831 263.431392 
L 765.079714 263.275501 
L 766.290598 263.330203 
L 767.501482 263.595219 
L 768.712365 264.073732 
L 769.923249 264.772606 
L 771.268675 265.821142 
L 772.614102 267.177855 
L 773.959528 268.875006 
L 775.304954 270.958384 
L 776.650381 273.49342 
L 777.861264 276.239279 
L 779.072148 279.530842 
L 780.283032 283.524851 
L 781.359373 287.866629 
L 782.301171 292.516159 
L 783.24297 298.321965 
L 784.050225 304.711417 
L 784.722939 311.661493 
L 785.395652 321.259192 
L 785.933822 332.824827 
L 786.33745 347.068945 
L 786.606535 364.48381 
L 786.741078 381.430192 
L 786.843596 433 
M 786.909697 433 
L 787.144706 366.541066 
L 787.548334 342.291316 
L 788.086504 326.988501 
L 788.759218 315.5886 
L 789.431931 307.776028 
L 790.239187 300.825708 
L 791.180985 294.661855 
L 792.257326 289.200753 
L 793.333667 284.854847 
L 794.544551 280.896467 
L 795.755434 277.666373 
L 797.100861 274.731608 
L 798.446287 272.345898 
L 799.791713 270.412988 
L 801.13714 268.867059 
L 802.482566 267.662057 
L 803.827992 266.765531 
L 805.173419 266.154931 
L 806.384302 265.837389 
L 807.595186 265.732768 
L 808.80607 265.838206 
L 810.016953 266.154295 
L 811.227837 266.685124 
L 812.573263 267.536491 
L 813.91869 268.679893 
L 815.264116 270.140663 
L 816.609542 271.955001 
L 817.954969 274.174299 
L 819.300395 276.872417 
L 820.511279 279.799248 
L 821.722162 283.320872 
L 822.798504 287.097999 
L 823.874845 291.698328 
L 824.816643 296.671777 
L 825.758441 302.970368 
L 826.565697 310.052 
L 827.23841 317.999672 
L 827.776581 326.823066 
L 828.180209 336.255032 
L 828.583837 351.276351 
L 828.852922 370.548981 
L 829.122007 427.859617 
L 829.391093 365.500499 
L 829.79472 343.296344 
L 830.332891 328.611552 
L 831.005604 317.488815 
L 831.678317 309.807356 
L 832.485573 302.944675 
L 833.427372 296.840914 
L 834.100085 293.301452 
L 834.100085 293.301452 
" clip-path="url(#p995cec9d1b)" style="fill: none; stroke: #d62728; stroke-width: 1.5; stroke-linecap: square"/>
   </g>
   <g id="line2d_41">
    <path d="M 491.42 139.885283 
L 495.321736 139.996077 
L 499.223473 140.328816 
L 503.125209 140.884569 
L 507.026945 141.665141 
L 510.928682 142.673099 
L 514.830418 143.911817 
L 518.732154 145.385532 
L 522.633891 147.099426 
L 526.535627 149.059716 
L 530.437363 151.273782 
L 534.3391 153.750317 
L 538.240836 156.499522 
L 542.00803 159.423851 
L 545.775223 162.626072 
L 549.542417 166.120872 
L 553.309611 169.92547 
L 556.942262 173.906547 
L 560.574913 178.216049 
L 564.207564 182.879532 
L 567.705673 187.733401 
L 571.203781 192.976929 
L 574.567347 198.423631 
L 577.79637 204.067094 
L 581.025393 210.165486 
L 584.119874 216.492482 
L 587.079812 223.049494 
L 589.905207 229.839888 
L 592.59606 236.869277 
L 595.15237 244.145896 
L 597.574137 251.68107 
L 599.861362 259.489809 
L 602.014044 267.591552 
L 604.032183 276.011139 
L 605.91578 284.780045 
L 607.664834 293.938023 
L 609.279346 303.535307 
L 610.759315 313.63569 
L 612.104741 324.321033 
L 613.315625 335.69835 
L 614.391966 347.912034 
L 615.333764 361.167476 
L 616.14102 375.783177 
L 616.813733 392.32434 
L 617.351904 412.019972 
L 617.688331 433 
M 618.619744 433 
L 618.831873 428.262597 
L 619.100958 425.943594 
L 619.235501 425.898435 
L 619.370043 426.550165 
L 619.639129 430.173391 
L 619.754402 433 
M 620.787257 433 
L 621.119098 414.904178 
L 621.657268 397.435196 
L 622.329981 383.082097 
L 623.137237 370.854448 
L 624.079036 360.270567 
L 625.020834 352.078754 
L 626.097175 344.633852 
L 627.173516 338.626145 
L 628.3844 333.121967 
L 629.595283 328.629224 
L 630.806167 324.93217 
L 632.017051 321.883773 
L 633.227935 319.379872 
L 634.438818 317.344624 
L 635.649702 315.721816 
L 636.860586 314.469437 
L 638.071469 313.556184 
L 639.14781 313.010453 
L 640.224151 312.703098 
L 641.300492 312.626529 
L 642.376834 312.776699 
L 643.453175 313.153013 
L 644.529516 313.758447 
L 645.605857 314.59988 
L 646.81674 315.842973 
L 648.027624 317.423992 
L 649.238508 319.37931 
L 650.449391 321.761716 
L 651.660275 324.648418 
L 652.871159 328.155292 
L 653.9475 331.937808 
L 655.023841 336.558004 
L 655.965639 341.55766 
L 656.907438 347.88599 
L 657.714694 354.988506 
L 658.387407 362.937854 
L 658.925577 371.730738 
L 659.329205 381.084986 
L 659.732833 395.855084 
L 660.001918 414.443492 
L 660.1314 433 
M 660.396242 433 
L 660.540089 411.992975 
L 660.943717 389.142572 
L 661.481887 374.299789 
L 662.1546 363.15413 
L 662.827314 355.504589 
L 663.634569 348.709449 
L 664.576368 342.705511 
L 665.652709 337.417659 
L 666.72905 333.24303 
L 667.939934 329.479296 
L 669.150817 326.447911 
L 670.361701 323.983592 
L 671.572585 321.978188 
L 672.783468 320.357537 
L 673.994352 319.069069 
L 675.205236 318.074707 
L 676.41612 317.34658 
L 677.627003 316.864327 
L 678.837887 316.613376 
L 680.048771 316.583836 
L 681.259654 316.7698 
L 682.470538 317.168963 
L 683.815964 317.864058 
L 685.161391 318.83065 
L 686.506817 320.081546 
L 687.852243 321.636762 
L 689.19767 323.525505 
L 690.543096 325.789417 
L 691.888522 328.487923 
L 693.233949 331.707384 
L 694.444832 335.156265 
L 695.655716 339.276456 
L 696.732057 343.687135 
L 697.808398 349.081574 
L 698.750196 354.98382 
L 699.557452 361.401194 
L 700.230165 368.293125 
L 700.902879 377.653976 
L 701.441049 388.655921 
L 701.844677 401.655201 
L 702.113762 416.337046 
L 702.271563 433 
M 702.65432 433 
L 702.921018 410.117915 
L 703.324646 393.813657 
L 703.862817 381.414555 
L 704.53553 371.500039 
L 705.342785 363.31261 
L 706.150041 357.276112 
L 707.09184 351.847277 
L 708.168181 347.012953 
L 709.244522 343.173097 
L 710.455406 339.702003 
L 711.666289 336.906191 
L 712.877173 334.638546 
L 714.088057 332.801652 
L 715.29894 331.328182 
L 716.509824 330.170204 
L 717.720708 329.292953 
L 718.931591 328.671037 
L 720.142475 328.286038 
L 721.353359 328.124973 
L 722.564242 328.179301 
L 723.775126 328.444328 
L 724.98601 328.918879 
L 726.331436 329.694788 
L 727.676862 330.740638 
L 729.022289 332.071021 
L 730.367715 333.708089 
L 731.713141 335.683768 
L 733.058568 338.043391 
L 734.403994 340.851719 
L 735.74942 344.20335 
L 736.960304 347.801437 
L 738.171188 352.117319 
L 739.247529 356.766779 
L 740.32387 362.507977 
L 741.265668 368.880421 
L 742.072924 375.953009 
L 742.745637 383.77714 
L 743.283808 392.31289 
L 743.821978 405.036409 
L 744.225606 421.631782 
L 744.380727 433 
M 744.977207 433 
L 745.301947 413.495722 
L 745.840118 397.62867 
L 746.378288 387.991919 
L 747.051002 379.634406 
L 747.858257 372.399011 
L 748.800056 366.11799 
L 749.741854 361.262931 
L 750.818195 356.862278 
L 751.894536 353.324052 
L 753.10542 350.099174 
L 754.316304 347.487675 
L 755.527187 345.363725 
L 756.738071 343.642564 
L 757.948955 342.264905 
L 759.159838 341.188211 
L 760.370722 340.381515 
L 761.581606 339.822223 
L 762.79249 339.494073 
L 764.003373 339.385823 
L 765.214257 339.490416 
L 766.425141 339.804489 
L 767.770567 340.399395 
L 769.115993 341.258333 
L 770.46142 342.392248 
L 771.806846 343.818788 
L 773.152272 345.563976 
L 774.497699 347.664942 
L 775.843125 350.174421 
L 777.188551 353.168311 
L 778.533978 356.759053 
L 779.744861 360.643109 
L 780.955745 365.353528 
L 782.032086 370.50767 
L 782.973884 376.108085 
L 783.78114 382.135455 
L 784.588396 390.000739 
L 785.261109 399.044245 
L 785.79928 409.524566 
L 786.202908 421.590036 
L 786.442981 433 
M 787.334684 433 
L 787.682877 417.985101 
L 788.221047 404.816546 
L 788.89376 394.495168 
L 789.701016 386.0556 
L 790.508272 379.862909 
L 791.45007 374.305312 
L 792.526411 369.358848 
L 793.602752 365.426741 
L 794.813636 361.865243 
L 796.02452 358.987484 
L 797.235403 356.643121 
L 798.446287 354.732872 
L 799.791713 353.036945 
L 801.13714 351.727079 
L 802.348023 350.839923 
L 803.558907 350.204 
L 804.769791 349.80196 
L 805.980675 349.621678 
L 807.191558 349.655349 
L 808.402442 349.898932 
L 809.613326 350.351879 
L 810.958752 351.104367 
L 812.304178 352.128322 
L 813.649605 353.439443 
L 814.995031 355.061255 
L 816.340457 357.027511 
L 817.685884 359.386112 
L 819.03131 362.205636 
L 820.376736 365.586727 
L 821.58762 369.235301 
L 822.798504 373.638066 
L 823.874845 378.41562 
L 824.816643 383.543724 
L 825.758441 389.996585 
L 826.565697 397.210142 
L 827.23841 405.267537 
L 827.776581 414.17857 
L 828.180209 423.676183 
L 828.45571 433 
M 829.745162 433 
L 830.063806 422.641014 
L 830.601976 411.376753 
L 831.274689 402.049011 
L 832.081945 394.186281 
L 833.023744 387.467749 
L 833.965542 382.320322 
L 834.100085 381.677542 
L 834.100085 381.677542 
" clip-path="url(#p995cec9d1b)" style="fill: none; stroke: #9467bd; stroke-width: 1.5; stroke-linecap: square"/>
   </g>
   <g id="line2d_42">
    <path d="M 491.42 145.965904 
L 496.263535 146.077196 
L 501.10707 146.411276 
L 505.950604 146.968761 
L 510.794139 147.750683 
L 515.637674 148.758502 
L 520.481209 149.99412 
L 525.324743 151.459897 
L 530.168278 153.158678 
L 535.011813 155.09382 
L 539.855348 157.269229 
L 544.698882 159.6894 
L 549.542417 162.359476 
L 554.385952 165.285298 
L 559.229487 168.473489 
L 564.073021 171.931534 
L 568.916556 175.667888 
L 573.760091 179.692101 
L 578.469083 183.890752 
L 583.178075 188.382905 
L 587.887067 193.181251 
L 592.59606 198.300189 
L 597.305052 203.756133 
L 601.879501 209.396695 
L 606.453951 215.392795 
L 610.893858 221.574152 
L 615.333764 228.136175 
L 619.639129 234.889582 
L 623.944493 242.057784 
L 628.115314 249.431327 
L 632.286136 257.266718 
L 636.322415 265.333315 
L 640.224151 273.632835 
L 643.991345 282.169116 
L 647.623996 290.948635 
L 651.122105 299.981238 
L 654.48567 309.281162 
L 657.714694 318.868511 
L 660.809174 328.77145 
L 663.634569 338.54436 
L 666.325422 348.640655 
L 668.881732 359.115605 
L 671.168957 369.412731 
L 673.321639 380.143411 
L 675.205236 390.638601 
L 676.95429 401.669071 
L 678.434259 412.39712 
L 679.779685 423.841019 
L 680.689062 433 
L 680.689062 433 
" clip-path="url(#p995cec9d1b)" style="fill: none; stroke: #8c564b; stroke-width: 1.5; stroke-linecap: square"/>
   </g>
   <g id="patch_9">
    <path d="M 491.42 370.6 
L 491.42 37.68 
" style="fill: none; stroke: #000000; stroke-width: 0.8; stroke-linejoin: miter; stroke-linecap: square"/>
   </g>
   <g id="patch_10">
    <path d="M 834.03 370.6 
L 834.03 37.68 
" style="fill: none; stroke: #000000; stroke-width: 0.8; stroke-linejoin: miter; stroke-linecap: square"/>
   </g>
   <g id="patch_11">
    <path d="M 491.42 370.6 
L 834.03 370.6 
" style="fill: none; stroke: #000000; stroke-width: 0.8; stroke-linejoin: miter; stroke-linecap: square"/>
   </g>
   <g id="patch_12">
    <path d="M 491.42 37.68 
L 834.03 37.68 
" style="fill: none; stroke: #000000; stroke-width: 0.8; stroke-linejoin: miter; stroke-linecap: square"/>
   </g>
   <g id="text_36">
    <!-- Magnitude Response of Window Functions -->
    <g transform="translate(460.624 31.68) scale(0.192 -0.192)">
     <defs>
      <path id="DejaVuSans-52" d="M 2841 2188 
Q 3044 2119 3236 1894 
Q 3428 1669 3622 1275 
L 4263 0 
L 3584 0 
L 2988 1197 
Q 2756 1666 2539 1819 
Q 2322 1972 1947 1972 
L 1259 1972 
L 1259 0 
L 628 0 
L 628 4666 
L 2053 4666 
Q 2853 4666 3247 4331 
Q 3641 3997 3641 3322 
Q 3641 2881 3436 2590 
Q 3231 2300 2841 2188 
z
M 1259 4147 
L 1259 2491 
L 2053 2491 
Q 2509 2491 2742 2702 
Q 2975 2913 2975 3322 
Q 2975 3731 2742 3939 
Q 2509 4147 2053 4147 
L 1259 4147 
z
" transform="scale(0.015625)"/>
      <path id="DejaVuSans-66" d="M 2375 4863 
L 2375 4384 
L 1825 4384 
Q 1516 4384 1395 4259 
Q 1275 4134 1275 3809 
L 1275 3500 
L 2222 3500 
L 2222 3053 
L 1275 3053 
L 1275 0 
L 697 0 
L 697 3053 
L 147 3053 
L 147 3500 
L 697 3500 
L 697 3744 
Q 697 4328 969 4595 
Q 1241 4863 1831 4863 
L 2375 4863 
z
" transform="scale(0.015625)"/>
     </defs>
     <use xlink:href="#DejaVuSans-4d"/>
     <use xlink:href="#DejaVuSans-61" x="86.279297"/>
     <use xlink:href="#DejaVuSans-67" x="147.558594"/>
     <use xlink:href="#DejaVuSans-6e" x="211.035156"/>
     <use xlink:href="#DejaVuSans-69" x="274.414062"/>
     <use xlink:href="#DejaVuSans-74" x="302.197266"/>
     <use xlink:href="#DejaVuSans-75" x="341.40625"/>
     <use xlink:href="#DejaVuSans-64" x="404.785156"/>
     <use xlink:href="#DejaVuSans-65" x="468.261719"/>
     <use xlink:href="#DejaVuSans-20" x="529.785156"/>
     <use xlink:href="#DejaVuSans-52" x="561.572266"/>
     <use xlink:href="#DejaVuSans-65" x="626.554688"/>
     <use xlink:href="#DejaVuSans-73" x="688.078125"/>
     <use xlink:href="#DejaVuSans-70" x="740.177734"/>
     <use xlink:href="#DejaVuSans-6f" x="803.654297"/>
     <use xlink:href="#DejaVuSans-6e" x="864.835938"/>
     <use xlink:href="#DejaVuSans-73" x="928.214844"/>
     <use xlink:href="#DejaVuSans-65" x="980.314453"/>
     <use xlink:href="#DejaVuSans-20" x="1041.837891"/>
     <use xlink:href="#DejaVuSans-6f" x="1073.625"/>
     <use xlink:href="#DejaVuSans-66" x="1134.806641"/>
     <use xlink:href="#DejaVuSans-20" x="1170.011719"/>
     <use xlink:href="#DejaVuSans-57" x="1201.798828"/>
     <use xlink:href="#DejaVuSans-69" x="1298.425781"/>
     <use xlink:href="#DejaVuSans-6e" x="1326.208984"/>
     <use xlink:href="#DejaVuSans-64" x="1389.587891"/>
     <use xlink:href="#DejaVuSans-6f" x="1453.064453"/>
     <use xlink:href="#DejaVuSans-77" x="1514.246094"/>
     <use xlink:href="#DejaVuSans-20" x="1596.033203"/>
     <use xlink:href="#DejaVuSans-46" x="1627.820312"/>
     <use xlink:href="#DejaVuSans-75" x="1679.839844"/>
     <use xlink:href="#DejaVuSans-6e" x="1743.21875"/>
     <use xlink:href="#DejaVuSans-63" x="1806.597656"/>
     <use xlink:href="#DejaVuSans-74" x="1861.578125"/>
     <use xlink:href="#DejaVuSans-69" x="1900.787109"/>
     <use xlink:href="#DejaVuSans-6f" x="1928.570312"/>
     <use xlink:href="#DejaVuSans-6e" x="1989.751953"/>
     <use xlink:href="#DejaVuSans-73" x="2053.130859"/>
    </g>
   </g>
   <g id="legend_2">
    <g id="patch_13">
     <path d="M 692.81 191.39 
L 822.83 191.39 
Q 826.03 191.39 826.03 188.19 
L 826.03 48.88 
Q 826.03 45.68 822.83 45.68 
L 692.81 45.68 
Q 689.61 45.68 689.61 48.88 
L 689.61 188.19 
Q 689.61 191.39 692.81 191.39 
z
" style="fill: #ffffff; opacity: 0.8; stroke: #cccccc; stroke-linejoin: miter"/>
    </g>
    <g id="line2d_43">
     <path d="M 696.01 58.6375 
L 712.01 58.6375 
L 728.01 58.6375 
" style="fill: none; stroke: #1f77b4; stroke-width: 1.5; stroke-linecap: square"/>
    </g>
    <g id="text_37">
     <!-- Boxcar -->
     <g transform="translate(740.81 64.2375) scale(0.16 -0.16)">
      <use xlink:href="#DejaVuSans-42"/>
      <use xlink:href="#DejaVuSans-6f" x="68.603516"/>
      <use xlink:href="#DejaVuSans-78" x="126.660156"/>
      <use xlink:href="#DejaVuSans-63" x="184.089844"/>
      <use xlink:href="#DejaVuSans-61" x="239.070312"/>
      <use xlink:href="#DejaVuSans-72" x="300.349609"/>
     </g>
    </g>
    <g id="line2d_44">
     <path d="M 696.01 82.1225 
L 712.01 82.1225 
L 728.01 82.1225 
" style="fill: none; stroke: #ff7f0e; stroke-width: 1.5; stroke-linecap: square"/>
    </g>
    <g id="text_38">
     <!-- Bartlett -->
     <g transform="translate(740.81 87.7225) scale(0.16 -0.16)">
      <use xlink:href="#DejaVuSans-42"/>
      <use xlink:href="#DejaVuSans-61" x="68.603516"/>
      <use xlink:href="#DejaVuSans-72" x="129.882812"/>
      <use xlink:href="#DejaVuSans-74" x="170.996094"/>
      <use xlink:href="#DejaVuSans-6c" x="210.205078"/>
      <use xlink:href="#DejaVuSans-65" x="237.988281"/>
      <use xlink:href="#DejaVuSans-74" x="299.511719"/>
      <use xlink:href="#DejaVuSans-74" x="338.720703"/>
     </g>
    </g>
    <g id="line2d_45">
     <path d="M 696.01 105.6075 
L 712.01 105.6075 
L 728.01 105.6075 
" style="fill: none; stroke: #2ca02c; stroke-width: 1.5; stroke-linecap: square"/>
    </g>
    <g id="text_39">
     <!-- Hann -->
     <g transform="translate(740.81 111.2075) scale(0.16 -0.16)">
      <use xlink:href="#DejaVuSans-48"/>
      <use xlink:href="#DejaVuSans-61" x="75.195312"/>
      <use xlink:href="#DejaVuSans-6e" x="136.474609"/>
      <use xlink:href="#DejaVuSans-6e" x="199.853516"/>
     </g>
    </g>
    <g id="line2d_46">
     <path d="M 696.01 129.0925 
L 712.01 129.0925 
L 728.01 129.0925 
" style="fill: none; stroke: #d62728; stroke-width: 1.5; stroke-linecap: square"/>
    </g>
    <g id="text_40">
     <!-- Hamming -->
     <g transform="translate(740.81 134.6925) scale(0.16 -0.16)">
      <use xlink:href="#DejaVuSans-48"/>
      <use xlink:href="#DejaVuSans-61" x="75.195312"/>
      <use xlink:href="#DejaVuSans-6d" x="136.474609"/>
      <use xlink:href="#DejaVuSans-6d" x="233.886719"/>
      <use xlink:href="#DejaVuSans-69" x="331.298828"/>
      <use xlink:href="#DejaVuSans-6e" x="359.082031"/>
      <use xlink:href="#DejaVuSans-67" x="422.460938"/>
     </g>
    </g>
    <g id="line2d_47">
     <path d="M 696.01 152.5775 
L 712.01 152.5775 
L 728.01 152.5775 
" style="fill: none; stroke: #9467bd; stroke-width: 1.5; stroke-linecap: square"/>
    </g>
    <g id="text_41">
     <!-- Blackman -->
     <g transform="translate(740.81 158.1775) scale(0.16 -0.16)">
      <use xlink:href="#DejaVuSans-42"/>
      <use xlink:href="#DejaVuSans-6c" x="68.603516"/>
      <use xlink:href="#DejaVuSans-61" x="96.386719"/>
      <use xlink:href="#DejaVuSans-63" x="157.666016"/>
      <use xlink:href="#DejaVuSans-6b" x="212.646484"/>
      <use xlink:href="#DejaVuSans-6d" x="270.556641"/>
      <use xlink:href="#DejaVuSans-61" x="367.96875"/>
      <use xlink:href="#DejaVuSans-6e" x="429.248047"/>
     </g>
    </g>
    <g id="line2d_48">
     <path d="M 696.01 176.0625 
L 712.01 176.0625 
L 728.01 176.0625 
" style="fill: none; stroke: #8c564b; stroke-width: 1.5; stroke-linecap: square"/>
    </g>
    <g id="text_42">
     <!-- Kaiser  -->
     <g transform="translate(740.81 181.6625) scale(0.16 -0.16)">
      <use xlink:href="#DejaVuSans-4b"/>
      <use xlink:href="#DejaVuSans-61" x="63.826172"/>
      <use xlink:href="#DejaVuSans-69" x="125.105469"/>
      <use xlink:href="#DejaVuSans-73" x="152.888672"/>
      <use xlink:href="#DejaVuSans-65" x="204.988281"/>
      <use xlink:href="#DejaVuSans-72" x="266.511719"/>
      <use xlink:href="#DejaVuSans-20" x="307.625"/>
     </g>
    </g>
   </g>
  </g>
 </g>
 <defs>
  <clipPath id="p54a9aa1877">
   <rect x="70.22" y="37.68" width="342.61" height="332.92"/>
  </clipPath>
  <clipPath id="p995cec9d1b">
   <rect x="491.42" y="37.68" width="342.61" height="332.92"/>
  </clipPath>
 </defs>
</svg>
